<svg xmlns="http://www.w3.org/2000/svg" xmlns:xlink="http://www.w3.org/1999/xlink" contentStyleType="text/css" data-diagram-type="DESCRIPTION" height="1210px" preserveAspectRatio="none" style="width:519px;height:1210px;background:#FFFFFF;" version="1.1" viewBox="0 0 519 1210" width="519px" zoomAndPan="magnify"><?plantuml 1.2026.3?><defs/><g><!--cluster Library Management System--><g class="cluster" data-qualified-name="Library Management System" data-source-line="12" id="ent0007"><rect fill="#FFFFFF" height="1184" rx="2.5" ry="2.5" style="stroke:#000000;stroke-width:1;" width="301" x="88" y="12"/><text fill="#000000" font-family="Verdana" font-size="14" font-weight="700" lengthAdjust="spacing" textLength="224.793" x="126.1035" y="28.0752">Library Management System</text></g><!--cluster Access and Membership--><g class="cluster" data-qualified-name="Library Management System.Access and Membership" data-source-line="13" id="ent0008"><rect fill="#FFFFFF" height="355" rx="2.5" ry="2.5" style="stroke:#000000;stroke-width:1;" width="249" x="114" y="56"/><text fill="#000000" font-family="Verdana" font-size="14" font-weight="700" lengthAdjust="spacing" textLength="188.2139" x="144.3931" y="72.0752">Access and Membership</text></g><!--cluster Library Operations--><g class="cluster" data-qualified-name="Library Management System.Library Operations" data-source-line="20" id="ent0013"><rect fill="#FFFFFF" height="527" rx="2.5" ry="2.5" style="stroke:#000000;stroke-width:1;" width="222" x="127.5" y="435"/><text fill="#000000" font-family="Verdana" font-size="14" font-weight="700" lengthAdjust="spacing" textLength="147.0137" x="164.9932" y="451.0752">Library Operations</text></g><!--cluster Administration and Reporting--><g class="cluster" data-qualified-name="Library Management System.Administration and Reporting" data-source-line="29" id="ent0020"><rect fill="#FFFFFF" height="186" rx="2.5" ry="2.5" style="stroke:#000000;stroke-width:1;" width="253" x="112" y="986"/><text fill="#000000" font-family="Verdana" font-size="14" font-weight="700" lengthAdjust="spacing" textLength="232.9756" x="122.0122" y="1002.0752">Administration and Reporting</text></g><!--entity UC01--><g class="entity" data-qualified-name="Library Management System.Access and Membership.UC01" data-source-line="14" id="ent0009"><ellipse cx="238.4294" cy="116.7952" fill="#FFFFFF" rx="65.9294" ry="24.7952" style="stroke:#000000;stroke-width:1;"/><text fill="#000000" font-family="Verdana" font-size="14" lengthAdjust="spacing" textLength="44.1807" x="216.3391" y="109.9016">UC-01</text><text fill="#000000" font-family="Verdana" font-size="14" lengthAdjust="spacing" textLength="98.2529" x="189.303" y="126.9163">Browse Books</text></g><!--entity UC02--><g class="entity" data-qualified-name="Library Management System.Access and Membership.UC02" data-source-line="15" id="ent0010"><ellipse cx="238.4796" cy="201.9475" fill="#FFFFFF" rx="108.4796" ry="24.4475" style="stroke:#000000;stroke-width:1;"/><text fill="#000000" font-family="Verdana" font-size="14" lengthAdjust="spacing" textLength="44.1807" x="216.3892" y="194.4903">UC-02</text><text fill="#000000" font-family="Verdana" font-size="14" lengthAdjust="spacing" textLength="167.3574" x="154.8009" y="211.5049">Manage Account Access</text></g><!--entity UC03--><g class="entity" data-qualified-name="Library Management System.Access and Membership.UC03" data-source-line="16" id="ent0011"><ellipse cx="238.5179" cy="286.2439" fill="#FFFFFF" rx="69.0179" ry="24.7439" style="stroke:#000000;stroke-width:1;"/><text fill="#000000" font-family="Verdana" font-size="14" lengthAdjust="spacing" textLength="44.1807" x="216.4276" y="279.268">UC-03</text><text fill="#000000" font-family="Verdana" font-size="14" lengthAdjust="spacing" textLength="103.3184" x="186.8588" y="296.2827">Manage Profile</text></g><!--entity UC04--><g class="entity" data-qualified-name="Library Management System.Access and Membership.UC04" data-source-line="17" id="ent0012"><ellipse cx="238.6412" cy="369.9805" fill="#FFFFFF" rx="100.1412" ry="24.4805" style="stroke:#000000;stroke-width:1;"/><text fill="#000000" font-family="Verdana" font-size="14" lengthAdjust="spacing" textLength="44.1807" x="216.5509" y="362.5774">UC-04</text><text fill="#000000" font-family="Verdana" font-size="14" lengthAdjust="spacing" textLength="153.8906" x="161.6959" y="379.5921">Apply for Membership</text></g><!--entity UC05--><g class="entity" data-qualified-name="Library Management System.Library Operations.UC05" data-source-line="21" id="ent0014"><ellipse cx="238.4875" cy="495.7601" fill="#FFFFFF" rx="67.9875" ry="24.7601" style="stroke:#000000;stroke-width:1;"/><text fill="#000000" font-family="Verdana" font-size="14" lengthAdjust="spacing" textLength="44.1807" x="216.3972" y="488.8103">UC-05</text><text fill="#000000" font-family="Verdana" font-size="14" lengthAdjust="spacing" textLength="101.6299" x="187.6726" y="505.825">Manage Books</text></g><!--entity UC06--><g class="entity" data-qualified-name="Library Management System.Library Operations.UC06" data-source-line="22" id="ent0015"><ellipse cx="238.5946" cy="581.0052" fill="#FFFFFF" rx="95.0946" ry="24.5052" style="stroke:#000000;stroke-width:1;"/><text fill="#000000" font-family="Verdana" font-size="14" lengthAdjust="spacing" textLength="44.1807" x="216.5043" y="573.6425">UC-06</text><text fill="#000000" font-family="Verdana" font-size="14" lengthAdjust="spacing" textLength="145.7285" x="165.7304" y="590.6571">Manage Book Copies</text></g><!--entity UC07--><g class="entity" data-qualified-name="Library Management System.Library Operations.UC07" data-source-line="23" id="ent0016"><ellipse cx="238.7221" cy="665.8082" fill="#FFFFFF" rx="65.2221" ry="24.8082" style="stroke:#000000;stroke-width:1;"/><text fill="#000000" font-family="Verdana" font-size="14" lengthAdjust="spacing" textLength="44.1807" x="216.6317" y="658.9353">UC-07</text><text fill="#000000" font-family="Verdana" font-size="14" lengthAdjust="spacing" textLength="97.0908" x="190.1767" y="675.9499">Borrow Books</text></g><!--entity UC08--><g class="entity" data-qualified-name="Library Management System.Library Operations.UC08" data-source-line="24" id="ent0017"><ellipse cx="238.568" cy="751.2431" fill="#FFFFFF" rx="69.068" ry="24.7431" style="stroke:#000000;stroke-width:1;"/><text fill="#000000" font-family="Verdana" font-size="14" lengthAdjust="spacing" textLength="44.1807" x="216.4777" y="744.266">UC-08</text><text fill="#000000" font-family="Verdana" font-size="14" lengthAdjust="spacing" textLength="103.4004" x="186.8678" y="761.2807">Reserve Books</text></g><!--entity UC09--><g class="entity" data-qualified-name="Library Management System.Library Operations.UC09" data-source-line="25" id="ent0018"><ellipse cx="238.4612" cy="835.8227" fill="#FFFFFF" rx="64.4612" ry="24.8227" style="stroke:#000000;stroke-width:1;"/><text fill="#000000" font-family="Verdana" font-size="14" lengthAdjust="spacing" textLength="44.1807" x="216.3708" y="828.9729">UC-09</text><text fill="#000000" font-family="Verdana" font-size="14" lengthAdjust="spacing" textLength="95.8398" x="190.5412" y="845.9876">Manage Fines</text></g><!--entity UC10--><g class="entity" data-qualified-name="Library Management System.Library Operations.UC10" data-source-line="26" id="ent0019"><ellipse cx="238.6758" cy="921.08" fill="#FFFFFF" rx="83.6758" ry="24.58" style="stroke:#000000;stroke-width:1;"/><text fill="#000000" font-family="Verdana" font-size="14" lengthAdjust="spacing" textLength="44.1807" x="216.5855" y="913.8394">UC-10</text><text fill="#000000" font-family="Verdana" font-size="14" lengthAdjust="spacing" textLength="127.2168" x="175.0674" y="930.854">Send Notifications</text></g><!--entity UC11--><g class="entity" data-qualified-name="Library Management System.Administration and Reporting.UC11" data-source-line="30" id="ent0021"><ellipse cx="238.701" cy="1131.0402" fill="#FFFFFF" rx="110.701" ry="24.5402" style="stroke:#000000;stroke-width:1;"/><text fill="#000000" font-family="Verdana" font-size="14" lengthAdjust="spacing" textLength="44.1807" x="216.6107" y="1123.4726">UC-11</text><text fill="#000000" font-family="Verdana" font-size="14" lengthAdjust="spacing" textLength="172.1494" x="152.6263" y="1140.4873">Manage Users and Roles</text></g><!--entity UC12--><g class="entity" data-qualified-name="Library Management System.Administration and Reporting.UC12" data-source-line="31" id="ent0022"><ellipse cx="238.4717" cy="1047.0986" fill="#FFFFFF" rx="81.4717" ry="24.5986" style="stroke:#000000;stroke-width:1;"/><text fill="#000000" font-family="Verdana" font-size="14" lengthAdjust="spacing" textLength="44.1807" x="216.3814" y="1039.8881">UC-12</text><text fill="#000000" font-family="Verdana" font-size="14" lengthAdjust="spacing" textLength="123.6348" x="176.6543" y="1056.9028">Generate Reports</text></g><!--entity Guest--><g class="entity" data-qualified-name="Guest" data-source-line="6" id="ent0002"><ellipse cx="39.4326" cy="130" fill="#FFFFFF" rx="8" ry="8" style="stroke:#000000;stroke-width:1;"/><path d="M39.4326,138 L39.4326,165 M26.4326,146 L52.4326,146 M39.4326,165 L26.4326,180 M39.4326,165 L52.4326,180" fill="none" style="stroke:#000000;stroke-width:1;"/><text fill="#000000" font-family="Verdana" font-size="14" lengthAdjust="spacing" textLength="40.8652" x="19" y="196.0752">Guest</text></g><!--entity Member--><g class="entity" data-qualified-name="Member" data-source-line="7" id="ent0003"><ellipse cx="39.3965" cy="340" fill="#FFFFFF" rx="8" ry="8" style="stroke:#000000;stroke-width:1;"/><path d="M39.3965,348 L39.3965,375 M26.3965,356 L52.3965,356 M39.3965,375 L26.3965,390 M39.3965,375 L52.3965,390" fill="none" style="stroke:#000000;stroke-width:1;"/><text fill="#000000" font-family="Verdana" font-size="14" lengthAdjust="spacing" textLength="56.793" x="11" y="406.0752">Member</text></g><!--entity Librarian--><g class="entity" data-qualified-name="Librarian" data-source-line="8" id="ent0004"><ellipse cx="456.4121" cy="551" fill="#FFFFFF" rx="8" ry="8" style="stroke:#000000;stroke-width:1;"/><path d="M456.4121,559 L456.4121,586 M443.4121,567 L469.4121,567 M456.4121,586 L443.4121,601 M456.4121,586 L469.4121,601" fill="none" style="stroke:#000000;stroke-width:1;"/><text fill="#000000" font-family="Verdana" font-size="14" lengthAdjust="spacing" textLength="61.8242" x="425.5" y="617.0752">Librarian</text></g><!--entity Admin--><g class="entity" data-qualified-name="Admin" data-source-line="9" id="ent0005"><ellipse cx="456.3057" cy="664" fill="#FFFFFF" rx="8" ry="8" style="stroke:#000000;stroke-width:1;"/><path d="M456.3057,672 L456.3057,699 M443.3057,680 L469.3057,680 M456.3057,699 L443.3057,714 M456.3057,699 L469.3057,714" fill="none" style="stroke:#000000;stroke-width:1;"/><text fill="#000000" font-family="Verdana" font-size="14" lengthAdjust="spacing" textLength="44.6113" x="434" y="730.0752">Admin</text></g><!--entity EmailService--><g class="entity" data-qualified-name="EmailService" data-source-line="10" id="ent0006"><ellipse cx="456.5645" cy="891" fill="#FFFFFF" rx="8" ry="8" style="stroke:#000000;stroke-width:1;"/><path d="M456.5645,899 L456.5645,926 M443.5645,907 L469.5645,907 M456.5645,926 L443.5645,941 M456.5645,926 L469.5645,941" fill="none" style="stroke:#000000;stroke-width:1;"/><text fill="#000000" font-family="Verdana" font-size="14" lengthAdjust="spacing" textLength="95.1289" x="409" y="957.0752">Email Service</text></g><!--link Guest to UC01--><g class="link" data-entity-1="ent0002" data-entity-2="ent0009" data-link-type="association" data-source-line="35" id="lnk23"><path d="M60.11,155.72 C88.04,149.62 140.4,138.2 181.02,129.33" fill="none" id="Guest-UC01" style="stroke:#000000;stroke-width:1;"/></g><!--link Guest to UC02--><g class="link" data-entity-1="ent0002" data-entity-2="ent0010" data-link-type="association" data-source-line="36" id="lnk24"><path d="M60.11,164.18 C83.17,169.1 122.9,177.57 158.91,185.24" fill="none" id="Guest-UC02" style="stroke:#000000;stroke-width:1;"/></g><!--link Member to UC01--><g class="link" data-entity-1="ent0003" data-entity-2="ent0009" data-link-type="association" data-source-line="38" id="lnk25"><path d="M47.34,330.74 C57.86,270.83 77.1,163.14 80,160 C103.45,134.58 140.32,123.63 172.49,119.12" fill="none" id="Member-UC01" style="stroke:#000000;stroke-width:1;"/></g><!--link Member to UC02--><g class="link" data-entity-1="ent0003" data-entity-2="ent0010" data-link-type="association" data-source-line="39" id="lnk26"><path d="M43,330.98 C46.84,303.08 56.41,266.6 80,244 C96.25,228.44 117.59,218.49 139.3,212.17" fill="none" id="Member-UC02" style="stroke:#000000;stroke-width:1;"/></g><!--link Member to UC03--><g class="link" data-entity-1="ent0003" data-entity-2="ent0011" data-link-type="association" data-source-line="40" id="lnk27"><path d="M68.19,336.75 C71.91,333.48 75.87,330.46 80,328 C108.43,311.02 143.77,300.79 173.77,294.69" fill="none" id="Member-UC03" style="stroke:#000000;stroke-width:1;"/></g><!--link Member to UC04--><g class="link" data-entity-1="ent0003" data-entity-2="ent0012" data-link-type="association" data-source-line="41" id="lnk28"><path d="M68.31,370 C86.87,370 112.51,370 138.22,370" fill="none" id="Member-UC04" style="stroke:#000000;stroke-width:1;"/></g><!--link Member to UC07--><g class="link" data-entity-1="ent0003" data-entity-2="ent0016" data-link-type="association" data-source-line="42" id="lnk29"><path d="M41.55,409.24 C44.06,472.27 52.41,592.14 80,623 C103.33,649.1 140.81,660.02 173.35,664.34" fill="none" id="Member-UC07" style="stroke:#000000;stroke-width:1;"/></g><!--link Member to UC08--><g class="link" data-entity-1="ent0003" data-entity-2="ent0017" data-link-type="association" data-source-line="43" id="lnk30"><path d="M39.78,409.16 C39.13,488.4 42.15,663.99 80,708 C101.99,733.57 137.57,744.66 169.35,749.21" fill="none" id="Member-UC08" style="stroke:#000000;stroke-width:1;"/></g><!--link Member to UC09--><g class="link" data-entity-1="ent0003" data-entity-2="ent0018" data-link-type="association" data-source-line="44" id="lnk31"><path d="M41.65,409.14 C44.9,508.36 55.6,763.95 80,793 C102.79,820.13 140.87,831.02 173.88,835.06" fill="none" id="Member-UC09" style="stroke:#000000;stroke-width:1;"/></g><!--link UC02 to Librarian--><g class="link" data-entity-1="ent0010" data-entity-2="ent0004" data-link-type="association" data-source-line="46" id="lnk32"><path d="M340.03,210.94 C361.39,217.32 382,227.61 397,244 C436.38,287.04 449.77,462.56 453.87,541.82" fill="none" id="UC02-Librarian" style="stroke:#000000;stroke-width:1;"/></g><!--link UC03 to Librarian--><g class="link" data-entity-1="ent0011" data-entity-2="ent0004" data-link-type="association" data-source-line="47" id="lnk33"><path d="M307.22,288.53 C338.51,293.2 373.78,304 397,328 C426.23,358.22 443.92,478.68 451.37,541.87" fill="none" id="UC03-Librarian" style="stroke:#000000;stroke-width:1;"/></g><!--link UC04 to Librarian--><g class="link" data-entity-1="ent0012" data-entity-2="ent0004" data-link-type="association" data-source-line="48" id="lnk34"><path d="M296.28,390.13 C329.13,404.13 369.31,425.59 397,455 C420.15,479.58 435.47,514.96 444.61,541.98" fill="none" id="UC04-Librarian" style="stroke:#000000;stroke-width:1;"/></g><!--link UC05 to Librarian--><g class="link" data-entity-1="ent0014" data-entity-2="ent0004" data-link-type="association" data-source-line="49" id="lnk35"><path d="M299.62,507.13 C329.77,514.01 366.29,524.37 397,539 C406.71,543.62 416.49,549.88 425.21,556.15" fill="none" id="UC05-Librarian" style="stroke:#000000;stroke-width:1;"/></g><!--link UC06 to Librarian--><g class="link" data-entity-1="ent0015" data-entity-2="ent0004" data-link-type="association" data-source-line="50" id="lnk36"><path d="M333.61,581 C366.58,581 401.31,581 425.22,581" fill="none" id="UC06-Librarian" style="stroke:#000000;stroke-width:1;"/></g><!--link UC07 to Librarian--><g class="link" data-entity-1="ent0016" data-entity-2="ent0004" data-link-type="association" data-source-line="51" id="lnk37"><path d="M297.38,655.38 C327.94,648.51 365.53,637.99 397,623 C406.71,618.38 416.49,612.12 425.21,605.85" fill="none" id="UC07-Librarian" style="stroke:#000000;stroke-width:1;"/></g><!--link UC08 to Librarian--><g class="link" data-entity-1="ent0017" data-entity-2="ent0004" data-link-type="association" data-source-line="52" id="lnk38"><path d="M307.49,748.66 C339.03,743.96 374.45,732.9 397,708 C418.48,684.28 395.65,666.09 409,637 C413.11,628.04 419.03,619.34 425.28,611.58" fill="none" id="UC08-Librarian" style="stroke:#000000;stroke-width:1;"/></g><!--link UC09 to Librarian--><g class="link" data-entity-1="ent0018" data-entity-2="ent0004" data-link-type="association" data-source-line="53" id="lnk39"><path d="M303.29,835.2 C336.35,831.21 374.43,820.31 397,793 C419.15,766.2 395.95,669.23 409,637 C412.84,627.51 418.91,618.42 425.41,610.43" fill="none" id="UC09-Librarian" style="stroke:#000000;stroke-width:1;"/></g><!--link UC10 to Librarian--><g class="link" data-entity-1="ent0019" data-entity-2="ent0004" data-link-type="association" data-source-line="54" id="lnk40"><path d="M321.8,918.14 C349.88,912.78 378.76,901.56 397,879 C413.93,858.06 399.23,662.09 409,637 C412.76,627.34 418.88,618.13 425.47,610.06" fill="none" id="UC10-Librarian" style="stroke:#000000;stroke-width:1;"/></g><!--link UC12 to Librarian--><g class="link" data-entity-1="ent0022" data-entity-2="ent0004" data-link-type="association" data-source-line="55" id="lnk41"><path d="M300.11,1030.72 C334.76,1018.01 375.5,996.56 397,962 C416.08,931.32 396.1,670.76 409,637 C412.7,627.32 418.8,618.1 425.38,610.03" fill="none" id="UC12-Librarian" style="stroke:#000000;stroke-width:1;"/></g><!--link UC02 to Admin--><g class="link" data-entity-1="ent0010" data-entity-2="ent0005" data-link-type="association" data-source-line="57" id="lnk42"><path d="M342.16,209.59 C363.31,216.05 383.29,226.7 397,244 C424.14,278.23 393.72,596.07 409,637 C414.23,651 424.39,664.11 433.88,674.22" fill="none" id="UC02-Admin" style="stroke:#000000;stroke-width:1;"/></g><!--link UC03 to Admin--><g class="link" data-entity-1="ent0011" data-entity-2="ent0005" data-link-type="association" data-source-line="58" id="lnk43"><path d="M307.67,286.51 C339.86,290.59 375.79,301.48 397,328 C418.46,354.84 396.85,604.86 409,637 C414.29,650.98 424.45,664.08 433.94,674.2" fill="none" id="UC03-Admin" style="stroke:#000000;stroke-width:1;"/></g><!--link UC04 to Admin--><g class="link" data-entity-1="ent0012" data-entity-2="ent0005" data-link-type="association" data-source-line="59" id="lnk44"><path d="M304.93,388.48 C338.27,401.46 376.1,422.45 397,455 C418.9,489.11 394.15,599.29 409,637 C414.43,650.78 424.48,663.78 433.86,673.87" fill="none" id="UC04-Admin" style="stroke:#000000;stroke-width:1;"/></g><!--link UC05 to Admin--><g class="link" data-entity-1="ent0014" data-entity-2="ent0005" data-link-type="association" data-source-line="60" id="lnk45"><path d="M306.39,497.68 C338.45,502.13 374.66,513.17 397,539 C411.35,555.59 400.39,616.82 409,637 C414.76,650.51 424.73,663.38 433.96,673.47" fill="none" id="UC05-Admin" style="stroke:#000000;stroke-width:1;"/></g><!--link UC06 to Admin--><g class="link" data-entity-1="ent0015" data-entity-2="ent0005" data-link-type="association" data-source-line="61" id="lnk46"><path d="M322,592.9 C347.44,599.14 374.62,608.62 397,623 C398.24,623.8 417.6,647.4 433.71,667.18" fill="none" id="UC06-Admin" style="stroke:#000000;stroke-width:1;"/></g><!--link UC07 to Admin--><g class="link" data-entity-1="ent0016" data-entity-2="ent0005" data-link-type="association" data-source-line="62" id="lnk47"><path d="M300.24,673.87 C344.91,679.66 403.02,687.2 433.94,691.2" fill="none" id="UC07-Admin" style="stroke:#000000;stroke-width:1;"/></g><!--link UC08 to Admin--><g class="link" data-entity-1="ent0017" data-entity-2="ent0005" data-link-type="association" data-source-line="63" id="lnk48"><path d="M294.29,736.54 C339.53,724.6 401.39,708.28 433.75,699.74" fill="none" id="UC08-Admin" style="stroke:#000000;stroke-width:1;"/></g><!--link UC09 to Admin--><g class="link" data-entity-1="ent0018" data-entity-2="ent0005" data-link-type="association" data-source-line="64" id="lnk49"><path d="M301.57,830.16 C332.75,824.64 369.62,813.89 397,793 C416.84,777.86 431.25,753.9 440.81,733.35" fill="none" id="UC09-Admin" style="stroke:#000000;stroke-width:1;"/></g><!--link UC10 to Admin--><g class="link" data-entity-1="ent0019" data-entity-2="ent0005" data-link-type="association" data-source-line="65" id="lnk50"><path d="M320.07,915.17 C347.46,909.45 376.33,898.74 397,879 C418.07,858.87 437.38,781.46 447.68,733.38" fill="none" id="UC10-Admin" style="stroke:#000000;stroke-width:1;"/></g><!--link UC11 to Admin--><g class="link" data-entity-1="ent0021" data-entity-2="ent0005" data-link-type="association" data-source-line="66" id="lnk51"><path d="M343.09,1122.8 C363.8,1116.32 383.36,1105.81 397,1089 C412.71,1069.65 405.04,889.61 409,865 C416.4,818.98 431.33,767.54 442.28,733.21" fill="none" id="UC11-Admin" style="stroke:#000000;stroke-width:1;"/></g><!--link UC12 to Admin--><g class="link" data-entity-1="ent0022" data-entity-2="ent0005" data-link-type="association" data-source-line="67" id="lnk52"><path d="M298.27,1030.33 C332.71,1017.4 373.86,995.86 397,962 C409.25,944.07 404.81,886.31 409,865 C418.03,819.12 432.73,767.44 443.18,733.02" fill="none" id="UC12-Admin" style="stroke:#000000;stroke-width:1;"/></g><!--link UC10 to EmailService--><g class="link" data-entity-1="ent0019" data-entity-2="ent0006" data-link-type="association" data-source-line="69" id="lnk53"><path d="M322.08,921 C351.5,921 383.59,921 408.92,921" fill="none" id="UC10-EmailService" style="stroke:#000000;stroke-width:1;"/></g><?plantuml-src RPJ1RgCm48RlVefPxf60a42EQTJsqkwk4kN6nIL3OWLiP3jRHQjzzpKON1ptnZVydlazC_13Nx15w1hAE6cmrg05I7Q-Q3WnYPLcWXDrPRoZahRGqUfAptZGzmQXVqtvkS6PG5teINmoVeQQDWe9ePKM4bvlgFJu_8xj1yeHtjY7f99HFlBsrBBfENfkAMlWWF8Fgp02gc28Z052d068R9uxl5Dk_BN8DHpkIcCRmLy2as-8jbM5IW7bfz67kh3EQW1k2YkgZEguMyH9oP-a-3Ju9CHL3UMFkpW9bMd9RLamsSNDbBPLfYDfU6JfZloMecODJjfbgCrAlkswvWwrQvurRKzaviG_Ch_Zr8jV7KhQ3r1zUy6Ly-1TS1KgrvuITg9ZwFJhK9-RrWbfckTdpaDbKV8zAZFF1nD5ADqu4o-CVvNV1CeaBla1pO1_2irgLaqj6FH97BHhM3ccjEtLi1fxx8JKPek_QroIE2T7OzqkqruqpbCIxaXYTkGLUJyF7BCxTJeuCfw6ZmGM2xjcSqe9iODtRprCVLpwcFcO-rZuk26aJzZJrwVPvmmYMH1P1P5r4Cc3I154De-H90uY3mwTQVl_c0mxoZnQURJsAFUey6Wp9slAKUBHp8kJplzT_m40?></g></svg>