<svg xmlns="http://www.w3.org/2000/svg" xmlns:xlink="http://www.w3.org/1999/xlink" contentStyleType="text/css" data-diagram-type="DESCRIPTION" height="1974px" preserveAspectRatio="none" style="width:887px;height:1974px;background:#FFFFFF;" version="1.1" viewBox="0 0 887 1974" width="887px" zoomAndPan="magnify"><?plantuml 1.2026.3?><defs/><g><!--cluster Library Management System--><g class="cluster" data-qualified-name="Library Management System" data-source-line="12" id="ent0007"><rect fill="#FFFFFF" height="1250" rx="2.5" ry="2.5" style="stroke:#000000;stroke-width:1;" width="615" x="115" y="12"/><text fill="#000000" font-family="Verdana" font-size="14" font-weight="700" lengthAdjust="spacing" textLength="224.793" x="310.1035" y="28.0752">Library Management System</text></g><!--cluster Authentication--><g class="cluster" data-qualified-name="Library Management System.Authentication" data-source-line="13" id="ent0008"><rect fill="#FFFFFF" height="427" rx="2.5" ry="2.5" style="stroke:#000000;stroke-width:1;" width="191" x="185.5" y="56"/><text fill="#000000" font-family="Verdana" font-size="14" font-weight="700" lengthAdjust="spacing" textLength="115.9648" x="223.0176" y="72.0752">Authentication</text></g><!--cluster Public Book Browsing--><g class="cluster" data-qualified-name="Library Management System.Public Book Browsing" data-source-line="22" id="ent0015"><rect fill="#FFFFFF" height="155" rx="2.5" ry="2.5" style="stroke:#000000;stroke-width:1;" width="190" x="186" y="507"/><text fill="#000000" font-family="Verdana" font-size="14" font-weight="700" lengthAdjust="spacing" textLength="170.4814" x="195.7593" y="523.0752">Public Book Browsing</text></g><!--cluster Profile, Membership, and Notifications--><g class="cluster" data-qualified-name="Library Management System.Profile. Membership. and Notifications" data-source-line="27" id="ent0018"><rect fill="#FFFFFF" height="552" rx="2.5" ry="2.5" style="stroke:#000000;stroke-width:1;" width="567" x="139" y="686"/><text fill="#000000" font-family="Verdana" font-size="14" font-weight="700" lengthAdjust="spacing" textLength="301.4443" x="271.7778" y="702.0752">Profile, Membership, and Notifications</text></g><!--entity Register--><g class="entity" data-qualified-name="Library Management System.Authentication.Register" data-source-line="14" id="ent0009"><ellipse cx="280.9688" cy="110.0938" fill="#FFFFFF" rx="75.9688" ry="17.5938" style="stroke:#000000;stroke-width:1;"/><text fill="#000000" font-family="Verdana" font-size="14" lengthAdjust="spacing" textLength="118.5762" x="221.6807" y="115.1011">Register Account</text></g><!--entity VerifyEmail--><g class="entity" data-qualified-name="Library Management System.Authentication.VerifyEmail" data-source-line="15" id="ent0010"><ellipse cx="281.1918" cy="178.0312" fill="#FFFFFF" rx="62.6918" ry="15.0312" style="stroke:#000000;stroke-width:1;"/><text fill="#000000" font-family="Verdana" font-size="14" lengthAdjust="spacing" textLength="84.417" x="238.9833" y="183.0385">Verify Email</text></g><!--entity Login--><g class="entity" data-qualified-name="Library Management System.Authentication.Login" data-source-line="16" id="ent0011"><ellipse cx="281.0981" cy="316.0312" fill="#FFFFFF" rx="34.5981" ry="15.0312" style="stroke:#000000;stroke-width:1;"/><text fill="#000000" font-family="Verdana" font-size="14" lengthAdjust="spacing" textLength="44.6865" x="258.7549" y="321.0385">Log In</text></g><!--entity RecoverPassword--><g class="entity" data-qualified-name="Library Management System.Authentication.RecoverPassword" data-source-line="17" id="ent0012"><ellipse cx="281.1285" cy="246.8257" fill="#FFFFFF" rx="79.6285" ry="18.3257" style="stroke:#000000;stroke-width:1;"/><text fill="#000000" font-family="Verdana" font-size="14" lengthAdjust="spacing" textLength="127.4766" x="217.3903" y="251.833">Recover Password</text></g><!--entity ChangePassword--><g class="entity" data-qualified-name="Library Management System.Authentication.ChangePassword" data-source-line="18" id="ent0013"><ellipse cx="281.1792" cy="384.0358" fill="#FFFFFF" rx="78.1792" ry="18.0358" style="stroke:#000000;stroke-width:1;"/><text fill="#000000" font-family="Verdana" font-size="14" lengthAdjust="spacing" textLength="123.9766" x="219.1909" y="389.0432">Change Password</text></g><!--entity Logout--><g class="entity" data-qualified-name="Library Management System.Authentication.Logout" data-source-line="19" id="ent0014"><ellipse cx="281.1243" cy="452.0312" fill="#FFFFFF" rx="42.1243" ry="15.0312" style="stroke:#000000;stroke-width:1;"/><text fill="#000000" font-family="Verdana" font-size="14" lengthAdjust="spacing" textLength="55.3301" x="253.4592" y="457.0385">Log Out</text></g><!--entity BrowseBooks--><g class="entity" data-qualified-name="Library Management System.Public Book Browsing.BrowseBooks" data-source-line="23" id="ent0016"><ellipse cx="280.9829" cy="558.9966" fill="#FFFFFF" rx="67.9829" ry="15.9966" style="stroke:#000000;stroke-width:1;"/><text fill="#000000" font-family="Verdana" font-size="14" lengthAdjust="spacing" textLength="98.2529" x="231.8564" y="564.0039">Browse Books</text></g><!--entity ViewBookDetails--><g class="entity" data-qualified-name="Library Management System.Public Book Browsing.ViewBookDetails" data-source-line="24" id="ent0017"><ellipse cx="280.9986" cy="628.1997" fill="#FFFFFF" rx="78.9986" ry="18.1997" style="stroke:#000000;stroke-width:1;"/><text fill="#000000" font-family="Verdana" font-size="14" lengthAdjust="spacing" textLength="125.959" x="218.0191" y="633.207">View Book Details</text></g><!--entity ViewProfile--><g class="entity" data-qualified-name="Library Management System.Profile. Membership. and Notifications.ViewProfile" data-source-line="28" id="ent0019"><ellipse cx="280.9759" cy="1050.0312" fill="#FFFFFF" rx="60.9759" ry="15.0312" style="stroke:#000000;stroke-width:1;"/><text fill="#000000" font-family="Verdana" font-size="14" lengthAdjust="spacing" textLength="81.9902" x="239.9807" y="1055.0385">View Profile</text></g><!--entity UpdateProfile--><g class="entity" data-qualified-name="Library Management System.Profile. Membership. and Notifications.UpdateProfile" data-source-line="29" id="ent0020"><ellipse cx="281.1665" cy="917.0333" fill="#FFFFFF" rx="68.1665" ry="16.0333" style="stroke:#000000;stroke-width:1;"/><text fill="#000000" font-family="Verdana" font-size="14" lengthAdjust="spacing" textLength="98.7383" x="231.7974" y="922.0406">Update Profile</text></g><!--entity UploadAvatar--><g class="entity" data-qualified-name="Library Management System.Profile. Membership. and Notifications.UploadAvatar" data-source-line="30" id="ent0021"><ellipse cx="280.9648" cy="984.093" fill="#FFFFFF" rx="68.4648" ry="16.093" style="stroke:#000000;stroke-width:1;"/><text fill="#000000" font-family="Verdana" font-size="14" lengthAdjust="spacing" textLength="99.5244" x="231.2026" y="989.1003">Upload Avatar</text></g><!--entity ApplyMembership--><g class="entity" data-qualified-name="Library Management System.Profile. Membership. and Notifications.ApplyMembership" data-source-line="31" id="ent0022"><ellipse cx="280.9201" cy="1121.084" fill="#FFFFFF" rx="90.9201" ry="20.584" style="stroke:#000000;stroke-width:1;"/><text fill="#000000" font-family="Verdana" font-size="14" lengthAdjust="spacing" textLength="153.8906" x="203.9748" y="1126.0913">Apply for Membership</text></g><!--entity ViewMembershipStatus--><g class="entity" data-qualified-name="Library Management System.Profile. Membership. and Notifications.ViewMembershipStatus" data-source-line="32" id="ent0023"><ellipse cx="281.22" cy="1198.844" fill="#FFFFFF" rx="99.72" ry="22.344" style="stroke:#000000;stroke-width:1;"/><text fill="#000000" font-family="Verdana" font-size="14" lengthAdjust="spacing" textLength="173.7285" x="194.3558" y="1203.8513">View Membership Status</text></g><!--entity ApproveMembership--><g class="entity" data-qualified-name="Library Management System.Profile. Membership. and Notifications.ApproveMembership" data-source-line="33" id="ent0024"><ellipse cx="280.8881" cy="750.0776" fill="#FFFFFF" rx="125.8881" ry="27.5776" style="stroke:#000000;stroke-width:1;"/><text fill="#000000" font-family="Verdana" font-size="14" lengthAdjust="spacing" textLength="230.583" x="165.5966" y="755.085">Approve Membership Application</text></g><!--entity RejectMembership--><g class="entity" data-qualified-name="Library Management System.Profile. Membership. and Notifications.RejectMembership" data-source-line="34" id="ent0025"><ellipse cx="280.8143" cy="838.7629" fill="#FFFFFF" rx="119.3143" ry="26.2629" style="stroke:#000000;stroke-width:1;"/><text fill="#000000" font-family="Verdana" font-size="14" lengthAdjust="spacing" textLength="216.5146" x="172.557" y="843.7702">Reject Membership Application</text></g><!--entity SendNotifications--><g class="entity" data-qualified-name="Library Management System.Profile. Membership. and Notifications.SendNotifications" data-source-line="35" id="ent0026"><ellipse cx="610.5205" cy="743.8041" fill="#FFFFFF" rx="79.5205" ry="18.3041" style="stroke:#000000;stroke-width:1;"/><text fill="#000000" font-family="Verdana" font-size="14" lengthAdjust="spacing" textLength="127.2168" x="546.9121" y="748.8114">Send Notifications</text></g><!--entity Guest--><g class="entity" data-qualified-name="Guest" data-source-line="6" id="ent0002"><ellipse cx="39.4326" cy="231" fill="#FFFFFF" rx="8" ry="8" style="stroke:#000000;stroke-width:1;"/><path d="M39.4326,239 L39.4326,266 M26.4326,247 L52.4326,247 M39.4326,266 L26.4326,281 M39.4326,266 L52.4326,281" fill="none" style="stroke:#000000;stroke-width:1;"/><text fill="#000000" font-family="Verdana" font-size="14" lengthAdjust="spacing" textLength="40.8652" x="19" y="297.0752">Guest</text></g><!--entity Member--><g class="entity" data-qualified-name="Member" data-source-line="7" id="ent0003"><ellipse cx="39.3965" cy="599" fill="#FFFFFF" rx="8" ry="8" style="stroke:#000000;stroke-width:1;"/><path d="M39.3965,607 L39.3965,634 M26.3965,615 L52.3965,615 M39.3965,634 L26.3965,649 M39.3965,634 L52.3965,649" fill="none" style="stroke:#000000;stroke-width:1;"/><text fill="#000000" font-family="Verdana" font-size="14" lengthAdjust="spacing" textLength="56.793" x="11" y="665.0752">Member</text></g><!--entity Librarian--><g class="entity" data-qualified-name="Librarian" data-source-line="8" id="ent0004"><ellipse cx="610.4121" cy="1647" fill="#FFFFFF" rx="8" ry="8" style="stroke:#000000;stroke-width:1;"/><path d="M610.4121,1655 L610.4121,1682 M597.4121,1663 L623.4121,1663 M610.4121,1682 L597.4121,1697 M610.4121,1682 L623.4121,1697" fill="none" style="stroke:#000000;stroke-width:1;"/><text fill="#000000" font-family="Verdana" font-size="14" lengthAdjust="spacing" textLength="61.8242" x="579.5" y="1713.0752">Librarian</text></g><!--entity Admin--><g class="entity" data-qualified-name="Admin" data-source-line="9" id="ent0005"><ellipse cx="610.3057" cy="1534" fill="#FFFFFF" rx="8" ry="8" style="stroke:#000000;stroke-width:1;"/><path d="M610.3057,1542 L610.3057,1569 M597.3057,1550 L623.3057,1550 M610.3057,1569 L597.3057,1584 M610.3057,1569 L623.3057,1584" fill="none" style="stroke:#000000;stroke-width:1;"/><text fill="#000000" font-family="Verdana" font-size="14" lengthAdjust="spacing" textLength="44.6113" x="588" y="1600.0752">Admin</text></g><!--entity EmailService--><g class="entity" data-qualified-name="EmailService" data-source-line="10" id="ent0006"><ellipse cx="824.5645" cy="714" fill="#FFFFFF" rx="8" ry="8" style="stroke:#000000;stroke-width:1;"/><path d="M824.5645,722 L824.5645,749 M811.5645,730 L837.5645,730 M824.5645,749 L811.5645,764 M824.5645,749 L837.5645,764" fill="none" style="stroke:#000000;stroke-width:1;"/><text fill="#000000" font-family="Verdana" font-size="14" lengthAdjust="spacing" textLength="95.1289" x="777" y="780.0752">Email Service</text></g><!--link Guest to Register--><g class="link" data-entity-1="ent0002" data-entity-2="ent0009" data-link-type="association" data-source-line="39" id="lnk27"><path d="M53.3,221.73 C63.73,195.99 81.02,163.74 107,145 C135.21,124.65 172.41,115.47 205.08,111.55" fill="none" id="Guest-Register" style="stroke:#000000;stroke-width:1;"/></g><!--link Guest to VerifyEmail--><g class="link" data-entity-1="ent0002" data-entity-2="ent0010" data-link-type="association" data-source-line="40" id="lnk28"><path d="M60.2,242.36 C72.69,231.57 89.7,218.66 107,211 C143.07,195.04 186.72,186.79 221.15,182.52" fill="none" id="Guest-VerifyEmail" style="stroke:#000000;stroke-width:1;"/></g><!--link Guest to Login--><g class="link" data-entity-1="ent0002" data-entity-2="ent0011" data-link-type="association" data-source-line="41" id="lnk29"><path d="M60.08,268.23 C73.22,272.9 90.99,278.85 107,283 C155.68,295.64 213.23,305.66 248.15,311.21" fill="none" id="Guest-Login" style="stroke:#000000;stroke-width:1;"/></g><!--link Guest to RecoverPassword--><g class="link" data-entity-1="ent0002" data-entity-2="ent0012" data-link-type="association" data-source-line="42" id="lnk30"><path d="M60.1,259.86 C91.16,258.04 153.32,254.41 203.65,251.46" fill="none" id="Guest-RecoverPassword" style="stroke:#000000;stroke-width:1;"/></g><!--link Guest to BrowseBooks--><g class="link" data-entity-1="ent0002" data-entity-2="ent0016" data-link-type="association" data-source-line="43" id="lnk31"><path d="M60.06,281.66 C73.66,297.41 90.75,320.37 99,344 C109.19,373.21 89.35,457.59 107,483 C133.77,521.53 184.61,540.73 224.28,550.17" fill="none" id="Guest-BrowseBooks" style="stroke:#000000;stroke-width:1;"/></g><!--link Guest to ViewBookDetails--><g class="link" data-entity-1="ent0002" data-entity-2="ent0017" data-link-type="association" data-source-line="44" id="lnk32"><path d="M43.05,300.01 C49,378.43 66.47,551.19 107,592 C131.64,616.82 168.65,626.67 202.11,629.97" fill="none" id="Guest-ViewBookDetails" style="stroke:#000000;stroke-width:1;"/></g><!--link Member to VerifyEmail--><g class="link" data-entity-1="ent0003" data-entity-2="ent0010" data-link-type="association" data-source-line="46" id="lnk33"><path d="M44.17,589.78 C53.78,491.05 80.72,238.1 107,211 C136.16,180.93 183.66,173.59 221.51,173.27" fill="none" id="Member-VerifyEmail" style="stroke:#000000;stroke-width:1;"/></g><!--link Member to Login--><g class="link" data-entity-1="ent0003" data-entity-2="ent0011" data-link-type="association" data-source-line="47" id="lnk34"><path d="M57.79,589.86 C71.48,556.96 89.79,508.34 99,464 C101.63,451.35 98.4,357.64 107,348 C142.07,308.68 208.43,307.82 247.99,311.44" fill="none" id="Member-Login" style="stroke:#000000;stroke-width:1;"/></g><!--link Member to RecoverPassword--><g class="link" data-entity-1="ent0003" data-entity-2="ent0012" data-link-type="association" data-source-line="48" id="lnk35"><path d="M54.45,589.72 C68.35,548.7 89.03,482.21 99,423 C101.59,407.64 96.83,294.8 107,283 C130.43,255.81 168.58,245.96 203.1,243.27" fill="none" id="Member-RecoverPassword" style="stroke:#000000;stroke-width:1;"/></g><!--link Member to ChangePassword--><g class="link" data-entity-1="ent0003" data-entity-2="ent0013" data-link-type="association" data-source-line="49" id="lnk36"><path d="M63.28,589.87 C76,566.12 90.87,534.74 99,505 C104.06,486.49 94.17,433.28 107,419 C131.17,392.1 169.81,382.57 204.45,380.1" fill="none" id="Member-ChangePassword" style="stroke:#000000;stroke-width:1;"/></g><!--link Member to Logout--><g class="link" data-entity-1="ent0003" data-entity-2="ent0014" data-link-type="association" data-source-line="50" id="lnk37"><path d="M68.18,593.33 C78.57,579.06 90.02,562.19 99,546 C103.44,537.99 100.56,533.51 107,527 C144.88,488.72 205.51,468.67 244.01,459.23" fill="none" id="Member-Logout" style="stroke:#000000;stroke-width:1;"/></g><!--link Member to BrowseBooks--><g class="link" data-entity-1="ent0003" data-entity-2="ent0016" data-link-type="association" data-source-line="51" id="lnk38"><path d="M68.03,611.08 C79.66,604.21 93.59,596.87 107,592 C143.07,578.91 185.35,570.72 219.09,565.78" fill="none" id="Member-BrowseBooks" style="stroke:#000000;stroke-width:1;"/></g><!--link Member to ViewBookDetails--><g class="link" data-entity-1="ent0003" data-entity-2="ent0017" data-link-type="association" data-source-line="52" id="lnk39"><path d="M68.44,628.88 C100.96,628.75 156.04,628.52 201.85,628.33" fill="none" id="Member-ViewBookDetails" style="stroke:#000000;stroke-width:1;"/></g><!--link Member to ViewProfile--><g class="link" data-entity-1="ent0003" data-entity-2="ent0019" data-link-type="association" data-source-line="53" id="lnk40"><path d="M41.73,668.25 C45.33,756.75 58.89,967.98 107,1017 C136.66,1047.23 184.87,1054.41 222.87,1054.63" fill="none" id="Member-ViewProfile" style="stroke:#000000;stroke-width:1;"/></g><!--link Member to UpdateProfile--><g class="link" data-entity-1="ent0003" data-entity-2="ent0020" data-link-type="association" data-source-line="54" id="lnk41"><path d="M45.62,668.05 C54.77,731.74 75.94,853.81 107,883 C135.33,909.62 178.12,918.2 214.06,920.08" fill="none" id="Member-UpdateProfile" style="stroke:#000000;stroke-width:1;"/></g><!--link Member to UploadAvatar--><g class="link" data-entity-1="ent0003" data-entity-2="ent0021" data-link-type="association" data-source-line="55" id="lnk42"><path d="M43.29,668.05 C49.58,744.72 67.51,910.92 107,950 C134.74,977.46 177.76,986 213.96,987.65" fill="none" id="Member-UploadAvatar" style="stroke:#000000;stroke-width:1;"/></g><!--link Member to ApplyMembership--><g class="link" data-entity-1="ent0003" data-entity-2="ent0022" data-link-type="association" data-source-line="56" id="lnk43"><path d="M40.77,668.3 C42.27,767.08 51.55,1022.17 107,1082 C128.14,1104.81 159.52,1115.69 189.78,1120.51" fill="none" id="Member-ApplyMembership" style="stroke:#000000;stroke-width:1;"/></g><!--link Member to ViewMembershipStatus--><g class="link" data-entity-1="ent0003" data-entity-2="ent0023" data-link-type="association" data-source-line="57" id="lnk44"><path d="M39.84,668.36 C38.83,778.59 41.99,1086.97 107,1159 C126.1,1180.17 153.99,1191.26 181.82,1196.8" fill="none" id="Member-ViewMembershipStatus" style="stroke:#000000;stroke-width:1;"/></g><!--link Login to Librarian--><g class="link" data-entity-1="ent0011" data-entity-2="ent0004" data-link-type="association" data-source-line="59" id="lnk45"><path d="M315.46,314.36 C344.59,314.95 385.45,321.06 407,348 C442.59,392.49 419.43,1318.81 437,1373 C452.59,1421.08 481.52,1420.36 501,1467 C527.71,1530.94 493.71,1561.59 531,1620 C542.69,1638.31 562.53,1652.64 579.34,1662.36" fill="none" id="Login-Librarian" style="stroke:#000000;stroke-width:1;"/></g><!--link RecoverPassword to Librarian--><g class="link" data-entity-1="ent0012" data-entity-2="ent0004" data-link-type="association" data-source-line="60" id="lnk46"><path d="M356.77,252.79 C376.02,258.04 394.74,267.21 407,283 C441.35,327.26 420.83,1237.36 437,1291 C452.56,1342.6 482.82,1343.26 501,1394 C535.17,1489.39 479.13,1532.96 531,1620 C542.21,1638.81 562.28,1653.22 579.31,1662.84" fill="none" id="RecoverPassword-Librarian" style="stroke:#000000;stroke-width:1;"/></g><!--link ChangePassword to Librarian--><g class="link" data-entity-1="ent0013" data-entity-2="ent0004" data-link-type="association" data-source-line="61" id="lnk47"><path d="M356.09,388.99 C375.57,394.05 394.58,403.11 407,419 C442.46,464.37 416.48,1401.2 437,1455 C452.74,1496.26 479.35,1492.52 501,1531 C521.47,1567.38 506.28,1586.37 531,1620 C543.67,1637.24 563.09,1651.4 579.44,1661.3" fill="none" id="ChangePassword-Librarian" style="stroke:#000000;stroke-width:1;"/></g><!--link Logout to Librarian--><g class="link" data-entity-1="ent0014" data-entity-2="ent0004" data-link-type="association" data-source-line="62" id="lnk48"><path d="M314.04,461.39 C343.9,472.02 386.78,492.5 407,527 C463.32,623.09 389.46,1428.27 437,1529 C453.13,1563.18 474.41,1558.14 501,1585 C515.41,1599.56 515.94,1606.11 531,1620 C545.86,1633.71 564.03,1647.09 579.15,1657.44" fill="none" id="Logout-Librarian" style="stroke:#000000;stroke-width:1;"/></g><!--link ViewProfile to Librarian--><g class="link" data-entity-1="ent0019" data-entity-2="ent0004" data-link-type="association" data-source-line="63" id="lnk49"><path d="M341.9,1051.05 C365.87,1054.76 391.43,1063.55 407,1083 C463.34,1153.41 372.07,1831.43 437,1894 C505.44,1959.96 570.95,1794.99 597.32,1716.15" fill="none" id="ViewProfile-Librarian" style="stroke:#000000;stroke-width:1;"/></g><!--link UpdateProfile to Librarian--><g class="link" data-entity-1="ent0020" data-entity-2="ent0004" data-link-type="association" data-source-line="64" id="lnk50"><path d="M348.39,919.19 C370.38,923.44 392.82,932.31 407,950 C461.24,1017.68 374.5,1669.86 437,1730 C476.05,1767.58 541.1,1730.17 579.18,1701.95" fill="none" id="UpdateProfile-Librarian" style="stroke:#000000;stroke-width:1;"/></g><!--link UploadAvatar to Librarian--><g class="link" data-entity-1="ent0021" data-entity-2="ent0004" data-link-type="association" data-source-line="65" id="lnk51"><path d="M349.06,986.3 C370.84,990.6 392.98,999.47 407,1017 C463.74,1087.94 371.6,1770.96 437,1834 C491.67,1886.7 558.79,1777.98 590.8,1716.03" fill="none" id="UploadAvatar-Librarian" style="stroke:#000000;stroke-width:1;"/></g><!--link ApproveMembership to Librarian--><g class="link" data-entity-1="ent0024" data-entity-2="ent0004" data-link-type="association" data-source-line="66" id="lnk52"><path d="M374.32,768.63 C387.06,775.01 398.62,783.55 407,795 C458.67,865.62 391.06,1507.52 437,1582 C468.77,1633.5 539.07,1659.2 579.43,1670.16" fill="none" id="ApproveMembership-Librarian" style="stroke:#000000;stroke-width:1;"/></g><!--link RejectMembership to Librarian--><g class="link" data-entity-1="ent0025" data-entity-2="ent0004" data-link-type="association" data-source-line="67" id="lnk53"><path d="M372.71,856.14 C386.07,862.48 398.26,871.15 407,883 C457.32,951.17 381.55,1580.93 437,1645 C471.98,1685.42 540.07,1685.46 579.43,1681.49" fill="none" id="RejectMembership-Librarian" style="stroke:#000000;stroke-width:1;"/></g><!--link Login to Admin--><g class="link" data-entity-1="ent0011" data-entity-2="ent0005" data-link-type="association" data-source-line="69" id="lnk54"><path d="M315.44,314.38 C344.57,314.97 385.42,321.09 407,348 C473.07,430.39 399.86,1199.14 437,1298 C452.77,1339.98 475.48,1339.13 501,1376 C535.09,1425.27 568.69,1485.86 589.26,1524.7" fill="none" id="Login-Admin" style="stroke:#000000;stroke-width:1;"/></g><!--link RecoverPassword to Admin--><g class="link" data-entity-1="ent0012" data-entity-2="ent0005" data-link-type="association" data-source-line="70" id="lnk55"><path d="M356.76,252.8 C376.01,258.05 394.73,267.22 407,283 C472.17,366.81 391.62,1142.03 437,1238 C453.16,1272.17 479.13,1263.18 501,1294 C553.18,1367.55 585.34,1469.8 600.03,1524.97" fill="none" id="RecoverPassword-Admin" style="stroke:#000000;stroke-width:1;"/></g><!--link ChangePassword to Admin--><g class="link" data-entity-1="ent0013" data-entity-2="ent0005" data-link-type="association" data-source-line="71" id="lnk56"><path d="M356.06,389.01 C375.54,394.07 394.56,403.12 407,419 C472.88,503.1 396.17,1281.28 437,1380 C445.26,1399.98 543.45,1498.65 587.89,1542.7" fill="none" id="ChangePassword-Admin" style="stroke:#000000;stroke-width:1;"/></g><!--link Logout to Admin--><g class="link" data-entity-1="ent0014" data-entity-2="ent0005" data-link-type="association" data-source-line="72" id="lnk57"><path d="M314.02,461.4 C343.88,472.04 386.74,492.53 407,527 C459.66,616.62 384.06,1372.55 437,1462 C470.67,1518.89 549.38,1547.52 587.73,1558.5" fill="none" id="Logout-Admin" style="stroke:#000000;stroke-width:1;"/></g><!--link ViewProfile to Admin--><g class="link" data-entity-1="ent0019" data-entity-2="ent0005" data-link-type="association" data-source-line="73" id="lnk58"><path d="M341.89,1051.05 C365.86,1054.77 391.42,1063.56 407,1083 C461.85,1151.47 373.8,1811.16 437,1872 C457.49,1891.73 479.73,1890.89 501,1872 C543.17,1834.55 502.26,1668.52 531,1620 C544.05,1597.96 569.54,1582.27 587.94,1573.2" fill="none" id="ViewProfile-Admin" style="stroke:#000000;stroke-width:1;"/></g><!--link UpdateProfile to Admin--><g class="link" data-entity-1="ent0020" data-entity-2="ent0005" data-link-type="association" data-source-line="74" id="lnk59"><path d="M348.38,919.2 C370.36,923.45 392.81,932.32 407,950 C459.75,1015.75 376.23,1649.59 437,1708 C457.51,1727.71 477.87,1724.55 501,1708 C534.6,1683.95 506.33,1653.15 531,1620 C545.99,1599.86 570.37,1584.09 587.98,1574.49" fill="none" id="UpdateProfile-Admin" style="stroke:#000000;stroke-width:1;"/></g><!--link UploadAvatar to Admin--><g class="link" data-entity-1="ent0021" data-entity-2="ent0005" data-link-type="association" data-source-line="75" id="lnk60"><path d="M349.04,986.32 C370.82,990.62 392.96,999.49 407,1017 C460.76,1084.07 375.05,1730.41 437,1790 C564.55,1912.7 482.87,1696.27 531,1620 C544.58,1598.48 569.71,1582.77 587.88,1573.56" fill="none" id="UploadAvatar-Admin" style="stroke:#000000;stroke-width:1;"/></g><!--link ApproveMembership to Admin--><g class="link" data-entity-1="ent0024" data-entity-2="ent0005" data-link-type="association" data-source-line="76" id="lnk61"><path d="M374.3,768.65 C387.04,775.02 398.61,783.56 407,795 C456.25,862.17 380.37,1482.93 437,1544 C475.64,1585.67 550.9,1576.82 587.91,1569.25" fill="none" id="ApproveMembership-Admin" style="stroke:#000000;stroke-width:1;"/></g><!--link RejectMembership to Admin--><g class="link" data-entity-1="ent0025" data-entity-2="ent0005" data-link-type="association" data-source-line="77" id="lnk62"><path d="M372.7,856.14 C386.06,862.49 398.25,871.16 407,883 C456.1,949.45 377.41,1568.77 437,1626 C457.51,1645.7 473.51,1633.3 501,1626 C533.71,1617.31 566.85,1596.19 587.74,1581.02" fill="none" id="RejectMembership-Admin" style="stroke:#000000;stroke-width:1;"/></g><!--link SendNotifications to EmailService--><g class="link" data-entity-1="ent0026" data-entity-2="ent0006" data-link-type="association" data-source-line="79" id="lnk63"><path d="M690.14,744 C719.25,744 751.31,744 776.7,744" fill="none" id="SendNotifications-EmailService" style="stroke:#000000;stroke-width:1;"/></g><!--link Register to SendNotifications--><g class="link" data-entity-1="ent0009" data-entity-2="ent0026" data-link-type="dependency" data-source-line="81" id="lnk64"><path d="M347.81,118.38 C368.36,123.49 390.05,131.73 407,145 C473.76,197.27 469.52,232.28 501,311 C562.57,464.99 596.0853,658.1832 605.7353,719.3732" fill="none" id="Register-to-SendNotifications" style="stroke:#000000;stroke-width:1;stroke-dasharray:7,7;"/><polygon fill="#000000" points="606.67,725.3,609.2191,715.7868,605.8911,720.361,601.3168,717.033,606.67,725.3" style="stroke:#000000;stroke-width:1;"/><text fill="#000000" font-family="Verdana" font-size="13" lengthAdjust="spacing" textLength="62.9624" x="438" y="172.0698">&#171;include&#187;</text></g><!--link RecoverPassword to SendNotifications--><g class="link" data-entity-1="ent0012" data-entity-2="ent0026" data-link-type="dependency" data-source-line="82" id="lnk65"><path d="M351.57,255.73 C371.27,261.01 391.53,269.47 407,283 C443.81,315.19 568.8248,637.6766 600.2748,719.8266" fill="none" id="RecoverPassword-to-SendNotifications" style="stroke:#000000;stroke-width:1;stroke-dasharray:7,7;"/><polygon fill="#000000" points="602.42,725.43,602.9378,715.5948,600.6323,720.7605,595.4666,718.455,602.42,725.43" style="stroke:#000000;stroke-width:1;"/><text fill="#000000" font-family="Verdana" font-size="13" lengthAdjust="spacing" textLength="62.9624" x="438" y="333.0698">&#171;include&#187;</text></g><!--link ApproveMembership to SendNotifications--><g class="link" data-entity-1="ent0024" data-entity-2="ent0026" data-link-type="dependency" data-source-line="83" id="lnk66"><path d="M406.75,747.72 C448.5,746.95 487.851,746.2297 525.051,745.5497" fill="none" id="ApproveMembership-to-SendNotifications" style="stroke:#000000;stroke-width:1;stroke-dasharray:7,7;"/><polygon fill="#000000" points="531.05,745.44,521.9784,741.6052,526.0508,745.5314,522.1246,749.6038,531.05,745.44" style="stroke:#000000;stroke-width:1;"/><text fill="#000000" font-family="Verdana" font-size="13" lengthAdjust="spacing" textLength="62.9624" x="438" y="744.0698">&#171;include&#187;</text></g><!--link RejectMembership to SendNotifications--><g class="link" data-entity-1="ent0025" data-entity-2="ent0026" data-link-type="dependency" data-source-line="84" id="lnk67"><path d="M354.28,818.04 C416.63,799.95 499.2675,775.9815 553.9775,760.1115" fill="none" id="RejectMembership-to-SendNotifications" style="stroke:#000000;stroke-width:1;stroke-dasharray:7,7;"/><polygon fill="#000000" points="559.74,758.44,549.9819,757.1057,554.938,759.833,552.2107,764.789,559.74,758.44" style="stroke:#000000;stroke-width:1;"/><text fill="#000000" font-family="Verdana" font-size="13" lengthAdjust="spacing" textLength="62.9624" x="438" y="775.0698">&#171;include&#187;</text></g><?plantuml-src ZLN1Rjim3BtxAxYSstx0K0H8js4Oq6v5W-skseoZnPOCIKuG3FltoQ9jcL8ov6QzH-hnIQJrmUsnHUWQ8LNHuCw1qs1alNTGIOEbareLzY1L9uneeHFbGTIuTUS6OQ25gXjS1DYzgFH9gXfseh5O5A9qsi3N7gqRlr-mVKSpBfxbkn562ZMkDrKhf-_LbrR81hPeZhB45GWB0Hc1efWBW1NjSuONeNnzBIe7sxDrsAxWJm5JtR3QzDwmSh8KWpCY0NgBfR2UViDQ-YnVHrdgNhaWEe4yz1SQkJjJHI6CWB3caS-wXcygnFXFRo-HBFNHAxuAQq_QLADa02UCPtpQUzF84mYx73_e_-ZTL83kdUV_5ijZUUtV6rd2azO7U3BwPFqDPeSJ20n1Dcn6G5WdPoFnH9jzHkVFWy87T017B2_2w9riy6xi4BkNtHq8LS5txUHkl3ARbHN4njnPPrppo9zT9HooM8AkH3TQLB0v2YVC63mW1F3OJTSrPzZDtJtK7b824R4BbKSIjawuFfvLP8Z898tlaMN-83PtDeaF8TVat_2t7w3_RK0Hr_AtcD-DJnfWXeQBzbSTVW9mVny7QaQMipE3D2oBB3uJCx5imxXZqcm5kKZ58afgSPtAHIQPDRR5C5mHM5Qsq4zAuypKYn7bFRh45-qOuRJb-FPPKnN1U2X__XSdtZd9xNEEJe1Z2rESOBvIAbhZJDRJQUMyOpaRlT8xSy4d4Rb7mgC_MYVU2CnyJJ3tHEX5FrDrkHTYYcp61eu_ZlDJzl2mpcSIFiBZerHbqrUuNcS7SKjENlbjIecf6vB-0G00?></g></svg>