<svg xmlns="http://www.w3.org/2000/svg" xmlns:xlink="http://www.w3.org/1999/xlink" contentStyleType="text/css" data-diagram-type="DESCRIPTION" height="1886px" preserveAspectRatio="none" style="width:1226px;height:1886px;background:#FFFFFF;" version="1.1" viewBox="0 0 1226 1886" width="1226px" zoomAndPan="magnify"><?plantuml 1.2026.3?><defs/><g><!--cluster Library Management System--><g class="cluster" data-qualified-name="Library Management System" data-source-line="11" id="ent0006"><rect fill="#FFFFFF" height="942" rx="2.5" ry="2.5" style="stroke:#000000;stroke-width:1;" width="1091" x="12" y="104"/><text fill="#000000" font-family="Verdana" font-size="14" font-weight="700" lengthAdjust="spacing" textLength="224.793" x="445.1035" y="120.0752">Library Management System</text></g><!--cluster Member Circulation--><g class="cluster" data-qualified-name="Library Management System.Member Circulation" data-source-line="12" id="ent0007"><rect fill="#FFFFFF" height="535" rx="2.5" ry="2.5" style="stroke:#000000;stroke-width:1;" width="223" x="495.5" y="148"/><text fill="#000000" font-family="Verdana" font-size="14" font-weight="700" lengthAdjust="spacing" textLength="153.1797" x="530.4102" y="164.0752">Member Circulation</text></g><!--cluster Staff Circulation--><g class="cluster" data-qualified-name="Library Management System.Staff Circulation" data-source-line="22" id="ent0015"><rect fill="#FFFFFF" height="315" rx="2.5" ry="2.5" style="stroke:#000000;stroke-width:1;" width="1019.5" x="36" y="707"/><text fill="#000000" font-family="Verdana" font-size="14" font-weight="700" lengthAdjust="spacing" textLength="127.2578" x="482.1211" y="723.0752">Staff Circulation</text></g><!--cluster Required Business Checks--><g class="cluster" data-qualified-name="Library Management System.Required Business Checks" data-source-line="32" id="ent0023"><rect fill="#FFFFFF" height="344" rx="2.5" ry="2.5" style="stroke:#000000;stroke-width:1;" width="254" x="825" y="339"/><text fill="#000000" font-family="Verdana" font-size="14" font-weight="700" lengthAdjust="spacing" textLength="205.3584" x="849.3208" y="355.0752">Required Business Checks</text></g><!--entity CreateBorrowRequest--><g class="entity" data-qualified-name="Library Management System.Member Circulation.CreateBorrowRequest" data-source-line="13" id="ent0008"><ellipse cx="606.934" cy="566.8868" fill="#FFFFFF" rx="94.934" ry="21.3868" style="stroke:#000000;stroke-width:1;"/><text fill="#000000" font-family="Verdana" font-size="14" lengthAdjust="spacing" textLength="163.0029" x="525.4325" y="571.8941">Create Borrow Request</text></g><!--entity ViewBorrowingHistory--><g class="entity" data-qualified-name="Library Management System.Member Circulation.ViewBorrowingHistory" data-source-line="14" id="ent0009"><ellipse cx="607.0557" cy="645.0111" fill="#FFFFFF" rx="95.5557" ry="21.5111" style="stroke:#000000;stroke-width:1;"/><text fill="#000000" font-family="Verdana" font-size="14" lengthAdjust="spacing" textLength="164.4043" x="524.8536" y="650.0185">View Borrowing History</text></g><!--entity RenewBorrowing--><g class="entity" data-qualified-name="Library Management System.Member Circulation.RenewBorrowing" data-source-line="15" id="ent0010"><ellipse cx="606.8076" cy="201.9615" fill="#FFFFFF" rx="77.8076" ry="17.9615" style="stroke:#000000;stroke-width:1;"/><text fill="#000000" font-family="Verdana" font-size="14" lengthAdjust="spacing" textLength="123.0742" x="545.2705" y="206.9688">Renew Borrowing</text></g><!--entity CreateReservation--><g class="entity" data-qualified-name="Library Management System.Member Circulation.CreateReservation" data-source-line="16" id="ent0011"><ellipse cx="607.0173" cy="273.9035" fill="#FFFFFF" rx="82.5173" ry="18.9035" style="stroke:#000000;stroke-width:1;"/><text fill="#000000" font-family="Verdana" font-size="14" lengthAdjust="spacing" textLength="134.3672" x="539.8337" y="278.9108">Create Reservation</text></g><!--entity CancelReservation--><g class="entity" data-qualified-name="Library Management System.Member Circulation.CancelReservation" data-source-line="17" id="ent0012"><ellipse cx="607.0866" cy="346.9173" fill="#FFFFFF" rx="82.5866" ry="18.9173" style="stroke:#000000;stroke-width:1;"/><text fill="#000000" font-family="Verdana" font-size="14" lengthAdjust="spacing" textLength="134.5313" x="539.821" y="351.9246">Cancel Reservation</text></g><!--entity ViewOwnReservations--><g class="entity" data-qualified-name="Library Management System.Member Circulation.ViewOwnReservations" data-source-line="18" id="ent0013"><ellipse cx="607.2197" cy="423.0439" fill="#FFFFFF" rx="95.7197" ry="21.5439" style="stroke:#000000;stroke-width:1;"/><text fill="#000000" font-family="Verdana" font-size="14" lengthAdjust="spacing" textLength="164.7734" x="524.8329" y="428.0513">View Own Reservations</text></g><!--entity ViewFines--><g class="entity" data-qualified-name="Library Management System.Member Circulation.ViewFines" data-source-line="19" id="ent0014"><ellipse cx="607.1877" cy="495.0312" fill="#FFFFFF" rx="55.6877" ry="15.0312" style="stroke:#000000;stroke-width:1;"/><text fill="#000000" font-family="Verdana" font-size="14" lengthAdjust="spacing" textLength="74.5117" x="569.9319" y="500.0385">View Fines</text></g><!--entity ApproveBorrowRequest--><g class="entity" data-qualified-name="Library Management System.Staff Circulation.ApproveBorrowRequest" data-source-line="23" id="ent0016"><ellipse cx="152.1838" cy="765.9368" fill="#FFFFFF" rx="100.1838" ry="22.4368" style="stroke:#000000;stroke-width:1;"/><text fill="#000000" font-family="Verdana" font-size="14" lengthAdjust="spacing" textLength="174.7607" x="64.8034" y="770.9441">Approve Borrow Request</text></g><!--entity RejectBorrowRequest--><g class="entity" data-qualified-name="Library Management System.Staff Circulation.RejectBorrowRequest" data-source-line="24" id="ent0017"><ellipse cx="151.9114" cy="985.1823" fill="#FFFFFF" rx="93.9114" ry="21.1823" style="stroke:#000000;stroke-width:1;"/><text fill="#000000" font-family="Verdana" font-size="14" lengthAdjust="spacing" textLength="160.6924" x="71.5652" y="990.1896">Reject Borrow Request</text></g><!--entity ProcessReturn--><g class="entity" data-qualified-name="Library Management System.Staff Circulation.ProcessReturn" data-source-line="25" id="ent0018"><ellipse cx="607.2022" cy="893.0404" fill="#FFFFFF" rx="70.7022" ry="16.5404" style="stroke:#000000;stroke-width:1;"/><text fill="#000000" font-family="Verdana" font-size="14" lengthAdjust="spacing" textLength="105.3418" x="554.5313" y="898.0478">Process Return</text></g><!--entity ProcessReservationQueue--><g class="entity" data-qualified-name="Library Management System.Staff Circulation.ProcessReservationQueue" data-source-line="26" id="ent0019"><ellipse cx="606.7679" cy="968.9536" fill="#FFFFFF" rx="107.7679" ry="23.9536" style="stroke:#000000;stroke-width:1;"/><text fill="#000000" font-family="Verdana" font-size="14" lengthAdjust="spacing" textLength="191.4883" x="511.0237" y="973.9609">Process Reservation Queue</text></g><!--entity ManageFines--><g class="entity" data-qualified-name="Library Management System.Staff Circulation.ManageFines" data-source-line="27" id="ent0020"><ellipse cx="152.0756" cy="839.8151" fill="#FFFFFF" rx="67.0756" ry="15.8151" style="stroke:#000000;stroke-width:1;"/><text fill="#000000" font-family="Verdana" font-size="14" lengthAdjust="spacing" textLength="95.8398" x="104.1557" y="844.8224">Manage Fines</text></g><!--entity ManageBookCopies--><g class="entity" data-qualified-name="Library Management System.Staff Circulation.ManageBookCopies" data-source-line="28" id="ent0021"><ellipse cx="951.8716" cy="892.8743" fill="#FFFFFF" rx="87.3716" ry="19.8743" style="stroke:#000000;stroke-width:1;"/><text fill="#000000" font-family="Verdana" font-size="14" lengthAdjust="spacing" textLength="145.7285" x="879.0073" y="897.8816">Manage Book Copies</text></g><!--entity SendNotifications--><g class="entity" data-qualified-name="Library Management System.Staff Circulation.SendNotifications" data-source-line="29" id="ent0022"><ellipse cx="152.0205" cy="909.8041" fill="#FFFFFF" rx="79.5205" ry="18.3041" style="stroke:#000000;stroke-width:1;"/><text fill="#000000" font-family="Verdana" font-size="14" lengthAdjust="spacing" textLength="127.2168" x="88.4121" y="914.8114">Send Notifications</text></g><!--entity CheckBorrowingEligibility--><g class="entity" data-qualified-name="Library Management System.Required Business Checks.CheckBorrowingEligibility" data-source-line="33" id="ent0024"><ellipse cx="952.2073" cy="483.0415" fill="#FFFFFF" rx="105.7073" ry="23.5415" style="stroke:#000000;stroke-width:1;"/><text fill="#000000" font-family="Verdana" font-size="14" lengthAdjust="spacing" textLength="186.9697" x="858.7224" y="488.0488">Check Borrowing Eligibility</text></g><!--entity CheckCopyBorrowability--><g class="entity" data-qualified-name="Library Management System.Required Business Checks.CheckCopyBorrowability" data-source-line="34" id="ent0025"><ellipse cx="952.1063" cy="564.9213" fill="#FFFFFF" rx="102.6063" ry="22.9213" style="stroke:#000000;stroke-width:1;"/><text fill="#000000" font-family="Verdana" font-size="14" lengthAdjust="spacing" textLength="180.1338" x="862.0394" y="569.9286">Check Copy Borrowability</text></g><!--entity CheckReservationEligibility--><g class="entity" data-qualified-name="Library Management System.Required Business Checks.CheckReservationEligibility" data-source-line="35" id="ent0026"><ellipse cx="952.0449" cy="400.109" fill="#FFFFFF" rx="111.0449" ry="24.609" style="stroke:#000000;stroke-width:1;"/><text fill="#000000" font-family="Verdana" font-size="14" lengthAdjust="spacing" textLength="198.6387" x="852.7255" y="405.1163">Check Reservation Eligibility</text></g><!--entity CheckCopyAvailability--><g class="entity" data-qualified-name="Library Management System.Required Business Checks.CheckCopyAvailability" data-source-line="36" id="ent0027"><ellipse cx="951.9131" cy="644.9826" fill="#FFFFFF" rx="95.4131" ry="21.4826" style="stroke:#000000;stroke-width:1;"/><text fill="#000000" font-family="Verdana" font-size="14" lengthAdjust="spacing" textLength="164.083" x="869.8715" y="649.9899">Check Copy Availability</text></g><!--entity Member--><g class="entity" data-qualified-name="Member" data-source-line="6" id="ent0002"><ellipse cx="151.8965" cy="19" fill="#FFFFFF" rx="8" ry="8" style="stroke:#000000;stroke-width:1;"/><path d="M151.8965,27 L151.8965,54 M138.8965,35 L164.8965,35 M151.8965,54 L138.8965,69 M151.8965,54 L164.8965,69" fill="none" style="stroke:#000000;stroke-width:1;"/><text fill="#000000" font-family="Verdana" font-size="14" lengthAdjust="spacing" textLength="56.793" x="123.5" y="85.0752">Member</text></g><!--entity Librarian--><g class="entity" data-qualified-name="Librarian" data-source-line="7" id="ent0003"><ellipse cx="1180.9121" cy="549" fill="#FFFFFF" rx="8" ry="8" style="stroke:#000000;stroke-width:1;"/><path d="M1180.9121,557 L1180.9121,584 M1167.9121,565 L1193.9121,565 M1180.9121,584 L1167.9121,599 M1180.9121,584 L1193.9121,599" fill="none" style="stroke:#000000;stroke-width:1;"/><text fill="#000000" font-family="Verdana" font-size="14" lengthAdjust="spacing" textLength="61.8242" x="1150" y="615.0752">Librarian</text></g><!--entity Admin--><g class="entity" data-qualified-name="Admin" data-source-line="8" id="ent0004"><ellipse cx="1180.8057" cy="1426" fill="#FFFFFF" rx="8" ry="8" style="stroke:#000000;stroke-width:1;"/><path d="M1180.8057,1434 L1180.8057,1461 M1167.8057,1442 L1193.8057,1442 M1180.8057,1461 L1167.8057,1476 M1180.8057,1461 L1193.8057,1476" fill="none" style="stroke:#000000;stroke-width:1;"/><text fill="#000000" font-family="Verdana" font-size="14" lengthAdjust="spacing" textLength="44.6113" x="1158.5" y="1492.0752">Admin</text></g><!--entity EmailService--><g class="entity" data-qualified-name="EmailService" data-source-line="9" id="ent0005"><ellipse cx="607.0645" cy="1473" fill="#FFFFFF" rx="8" ry="8" style="stroke:#000000;stroke-width:1;"/><path d="M607.0645,1481 L607.0645,1508 M594.0645,1489 L620.0645,1489 M607.0645,1508 L594.0645,1523 M607.0645,1508 L620.0645,1523" fill="none" style="stroke:#000000;stroke-width:1;"/><text fill="#000000" font-family="Verdana" font-size="14" lengthAdjust="spacing" textLength="95.1289" x="559.5" y="1539.0752">Email Service</text></g><!--link Member to CreateBorrowRequest--><g class="link" data-entity-1="ent0002" data-entity-2="ent0008" data-link-type="association" data-source-line="40" id="lnk28"><path d="M158.9,88.18 C174.6,187.26 220.47,444.04 282,501 C344.34,558.72 442.89,571.76 514.95,572.49" fill="none" id="Member-CreateBorrowRequest" style="stroke:#000000;stroke-width:1;"/></g><!--link Member to ViewBorrowingHistory--><g class="link" data-entity-1="ent0002" data-entity-2="ent0009" data-link-type="association" data-source-line="41" id="lnk29"><path d="M157.15,88.3 C169.65,199.06 210.54,510.19 282,579 C343.51,638.23 442.93,650.91 515.44,651.14" fill="none" id="Member-ViewBorrowingHistory" style="stroke:#000000;stroke-width:1;"/></g><!--link Member to RenewBorrowing--><g class="link" data-entity-1="ent0002" data-entity-2="ent0010" data-link-type="association" data-source-line="42" id="lnk30"><path d="M180.66,58.34 C256.73,84.03 469.57,155.92 562.11,187.17" fill="none" id="Member-RenewBorrowing" style="stroke:#000000;stroke-width:1;"/></g><!--link Member to CreateReservation--><g class="link" data-entity-1="ent0002" data-entity-2="ent0011" data-link-type="association" data-source-line="43" id="lnk31"><path d="M180.85,78.55 C205.51,103.31 243.46,138.18 282,161 C367.61,211.69 479.4,244.33 546.79,260.9" fill="none" id="Member-CreateReservation" style="stroke:#000000;stroke-width:1;"/></g><!--link Member to CancelReservation--><g class="link" data-entity-1="ent0002" data-entity-2="ent0012" data-link-type="association" data-source-line="44" id="lnk32"><path d="M169.08,88.32 C189.15,132.63 227.58,203.84 282,245 C356.55,301.38 462.99,327.05 533.25,338.42" fill="none" id="Member-CancelReservation" style="stroke:#000000;stroke-width:1;"/></g><!--link Member to ViewOwnReservations--><g class="link" data-entity-1="ent0002" data-entity-2="ent0013" data-link-type="association" data-source-line="45" id="lnk33"><path d="M159.9,88.39 C172.77,149.85 206.29,268.22 282,333 C346.77,388.41 443.04,409.89 513.82,418.12" fill="none" id="Member-ViewOwnReservations" style="stroke:#000000;stroke-width:1;"/></g><!--link Member to ViewFines--><g class="link" data-entity-1="ent0002" data-entity-2="ent0014" data-link-type="association" data-source-line="46" id="lnk34"><path d="M154.77,88.06 C160.4,163.75 183.91,330.71 282,419 C357.26,486.74 481.32,497.35 552.09,497.3" fill="none" id="Member-ViewFines" style="stroke:#000000;stroke-width:1;"/></g><!--link ApproveBorrowRequest to Librarian--><g class="link" data-entity-1="ent0016" data-entity-2="ent0003" data-link-type="association" data-source-line="48" id="lnk35"><path d="M220.24,782.58 C232.26,788.26 243.61,795.86 252,806 C295.88,859.07 238.56,904.57 282,958 C439.64,1151.9 571.72,1232.39 809,1154 C967.68,1101.58 1021.76,1071.29 1111,930 C1143.67,878.28 1166.92,698.31 1175.9,618.1" fill="none" id="ApproveBorrowRequest-Librarian" style="stroke:#000000;stroke-width:1;"/></g><!--link RejectBorrowRequest to Librarian--><g class="link" data-entity-1="ent0017" data-entity-2="ent0003" data-link-type="association" data-source-line="49" id="lnk36"><path d="M155.13,1006.21 C164.6,1096.12 205.77,1444.46 282,1518 C424.81,1655.78 534.63,1610.61 726.5,1560 C916.45,1509.9 1004.56,1507.11 1111,1342 C1150.48,1280.76 1172.93,765.34 1178.57,618.12" fill="none" id="RejectBorrowRequest-Librarian" style="stroke:#000000;stroke-width:1;"/></g><!--link ProcessReturn to Librarian--><g class="link" data-entity-1="ent0018" data-entity-2="ent0003" data-link-type="association" data-source-line="50" id="lnk37"><path d="M645.94,879.16 C673.57,866.88 709.08,846.03 726.5,815 C755.67,763.04 702.14,320.4 745,279 C804.93,221.1 1055.55,226.17 1120,279 C1159.74,311.58 1173.68,466.3 1178.12,539.91" fill="none" id="ProcessReturn-Librarian" style="stroke:#000000;stroke-width:1;"/></g><!--link RenewBorrowing to Librarian--><g class="link" data-entity-1="ent0010" data-entity-2="ent0003" data-link-type="association" data-source-line="51" id="lnk38"><path d="M636.48,185.2 C720.1,138.3 968.07,16.84 1111,135 C1172.78,186.07 1179.84,441.25 1180.22,539.94" fill="none" id="RenewBorrowing-Librarian" style="stroke:#000000;stroke-width:1;"/></g><!--link ViewBorrowingHistory to Librarian--><g class="link" data-entity-1="ent0009" data-entity-2="ent0003" data-link-type="association" data-source-line="52" id="lnk39"><path d="M687.52,633.36 C702.62,627.52 716.74,618.85 726.5,606 C753.28,570.75 712.98,238.57 745,208 C865.56,92.92 993.09,99.96 1120,208 C1169.74,250.35 1178.38,453.45 1179.78,539.9" fill="none" id="ViewBorrowingHistory-Librarian" style="stroke:#000000;stroke-width:1;"/></g><!--link ProcessReservationQueue to Librarian--><g class="link" data-entity-1="ent0019" data-entity-2="ent0003" data-link-type="association" data-source-line="53" id="lnk40"><path d="M691.4,953.85 C705.1,947.7 717.69,939.08 726.5,927 C765.82,873.12 697.12,373.43 745,327 C777.34,295.65 957.22,233.05 1111,359 C1165.04,403.26 1177.47,489.4 1179.9,539.76" fill="none" id="ProcessReservationQueue-Librarian" style="stroke:#000000;stroke-width:1;"/></g><!--link ManageFines to Librarian--><g class="link" data-entity-1="ent0020" data-entity-2="ent0003" data-link-type="association" data-source-line="54" id="lnk41"><path d="M210.22,848 C225.99,852.98 241.6,861.03 252,874 C326.97,967.52 202.81,1052.03 282,1142 C525.5,1418.62 846.18,1415.28 1111,1159 C1149.94,1121.32 1171.96,742.21 1178.16,618.1" fill="none" id="ManageFines-Librarian" style="stroke:#000000;stroke-width:1;"/></g><!--link ManageBookCopies to Librarian--><g class="link" data-entity-1="ent0021" data-entity-2="ent0003" data-link-type="association" data-source-line="55" id="lnk42"><path d="M968.43,873.31 C997.17,836.46 1060.56,754.34 1111,683 C1125.89,661.94 1141.84,637.99 1154.66,618.39" fill="none" id="ManageBookCopies-Librarian" style="stroke:#000000;stroke-width:1;"/></g><!--link ApproveBorrowRequest to Admin--><g class="link" data-entity-1="ent0016" data-entity-2="ent0004" data-link-type="association" data-source-line="57" id="lnk43"><path d="M221.86,782.28 C233.52,787.97 244.33,795.65 252,806 C296.64,866.22 240.88,1079.32 282,1142 C405.39,1330.07 541.48,1256.07 726.5,1384 C770.18,1414.2 767.35,1443.18 817,1462 C938.71,1508.13 1100.26,1475.93 1158.18,1461.76" fill="none" id="ApproveBorrowRequest-Admin" style="stroke:#000000;stroke-width:1;"/></g><!--link RejectBorrowRequest to Admin--><g class="link" data-entity-1="ent0017" data-entity-2="ent0004" data-link-type="association" data-source-line="58" id="lnk44"><path d="M154,1006.25 C159.2,1106.89 186.7,1534.17 282,1617 C563.32,1861.52 820.02,1871.22 1120,1650 C1168.09,1614.53 1178.8,1540.98 1180.55,1495.33" fill="none" id="RejectBorrowRequest-Admin" style="stroke:#000000;stroke-width:1;"/></g><!--link ProcessReturn to Admin--><g class="link" data-entity-1="ent0018" data-entity-2="ent0004" data-link-type="association" data-source-line="59" id="lnk45"><path d="M674.67,897.84 C694.18,902.63 713.68,911.36 726.5,927 C758.44,965.97 717.41,1110.83 745,1153 C846.14,1307.59 975.05,1224.92 1111,1350 C1131.52,1368.88 1148.66,1395.12 1160.73,1416.76" fill="none" id="ProcessReturn-Admin" style="stroke:#000000;stroke-width:1;"/></g><!--link RenewBorrowing to Admin--><g class="link" data-entity-1="ent0010" data-entity-2="ent0004" data-link-type="association" data-source-line="60" id="lnk46"><path d="M680.22,208.34 C698.03,213.5 715.22,222.27 726.5,237 C779.55,306.27 696.38,949.56 745,1022 C843.94,1169.41 996.27,1046.52 1111,1182 C1168.38,1249.75 1179.11,1358.67 1180.48,1416.67" fill="none" id="RenewBorrowing-Admin" style="stroke:#000000;stroke-width:1;"/></g><!--link ViewBorrowingHistory to Admin--><g class="link" data-entity-1="ent0009" data-entity-2="ent0004" data-link-type="association" data-source-line="61" id="lnk47"><path d="M695.28,653.24 C707.31,658.01 718.32,664.97 726.5,675 C755.11,710.08 720.29,1044.07 745,1082 C844.16,1234.22 990.23,1128.28 1111,1264 C1149.73,1307.53 1167.18,1374.39 1174.7,1416.63" fill="none" id="ViewBorrowingHistory-Admin" style="stroke:#000000;stroke-width:1;"/></g><!--link ProcessReservationQueue to Admin--><g class="link" data-entity-1="ent0019" data-entity-2="ent0004" data-link-type="association" data-source-line="62" id="lnk48"><path d="M616.08,992.99 C633.34,1041.41 677.79,1152.33 745,1224 C878.97,1366.85 930.71,1403.15 1119,1457 C1131.73,1460.64 1146.57,1460.49 1158.43,1459.38" fill="none" id="ProcessReservationQueue-Admin" style="stroke:#000000;stroke-width:1;"/></g><!--link ManageFines to Admin--><g class="link" data-entity-1="ent0020" data-entity-2="ent0004" data-link-type="association" data-source-line="63" id="lnk49"><path d="M210.81,847.82 C226.5,852.8 241.93,860.88 252,874 C309.95,949.43 223.47,1226.02 282,1301 C409.87,1464.8 591.76,1287.8 726.5,1446 C760.92,1486.41 708.41,1525.54 745,1564 C767.53,1587.68 784.49,1575.65 817,1579 C950.96,1592.8 1005.79,1650.36 1120,1579 C1149.22,1560.74 1164.59,1523.71 1172.42,1495.02" fill="none" id="ManageFines-Admin" style="stroke:#000000;stroke-width:1;"/></g><!--link ManageBookCopies to Admin--><g class="link" data-entity-1="ent0021" data-entity-2="ent0004" data-link-type="association" data-source-line="64" id="lnk50"><path d="M988.4,911.36 C1027.61,933.73 1089.33,975.4 1120,1030 C1157.08,1096.01 1173.06,1324.67 1178.11,1416.94" fill="none" id="ManageBookCopies-Admin" style="stroke:#000000;stroke-width:1;"/></g><!--link SendNotifications to EmailService--><g class="link" data-entity-1="ent0022" data-entity-2="ent0005" data-link-type="association" data-source-line="66" id="lnk51"><path d="M216.37,920.93 C230.13,926.27 243.19,934.2 252,946 C317.42,1033.58 210.3,1354.49 282,1437 C351.1,1516.51 487.61,1515.95 559.39,1509.25" fill="none" id="SendNotifications-EmailService" style="stroke:#000000;stroke-width:1;"/></g><!--link CreateBorrowRequest to CheckBorrowingEligibility--><g class="link" data-entity-1="ent0008" data-entity-2="ent0024" data-link-type="dependency" data-source-line="68" id="lnk52"><path d="M672.11,551.3 C731.35,536.79 813.3622,516.7072 874.5722,501.7172" fill="none" id="CreateBorrowRequest-to-CheckBorrowingEligibility" style="stroke:#000000;stroke-width:1;stroke-dasharray:7,7;"/><polygon fill="#000000" points="880.4,500.29,870.7069,498.5456,875.5435,501.4793,872.6098,506.316,880.4,500.29" style="stroke:#000000;stroke-width:1;"/><text fill="#000000" font-family="Verdana" font-size="13" lengthAdjust="spacing" textLength="62.9624" x="746" y="517.0698">&#171;include&#187;</text></g><!--link CreateBorrowRequest to CheckCopyBorrowability--><g class="link" data-entity-1="ent0008" data-entity-2="ent0025" data-link-type="dependency" data-source-line="69" id="lnk53"><path d="M702.18,566.45 C747.89,566.18 796.8801,565.8947 843.5201,565.6247" fill="none" id="CreateBorrowRequest-to-CheckCopyBorrowability" style="stroke:#000000;stroke-width:1;stroke-dasharray:7,7;"/><polygon fill="#000000" points="849.52,565.59,840.497,561.6422,844.5201,565.6189,840.5433,569.642,849.52,565.59" style="stroke:#000000;stroke-width:1;"/><text fill="#000000" font-family="Verdana" font-size="13" lengthAdjust="spacing" textLength="62.9624" x="746" y="563.0698">&#171;include&#187;</text></g><!--link ApproveBorrowRequest to CheckBorrowingEligibility--><g class="link" data-entity-1="ent0016" data-entity-2="ent0024" data-link-type="dependency" data-source-line="70" id="lnk54"><path d="M251.93,764.55 C394.53,760.82 649.22,747.49 726.5,700 C783.21,665.15 784.96,637.07 809,575 C817.29,553.6 801.96,541.33 817,524 C828.72,510.49 839.1217,503.4118 856.0217,497.2618" fill="none" id="ApproveBorrowRequest-to-CheckBorrowingEligibility" style="stroke:#000000;stroke-width:1;stroke-dasharray:7,7;"/><polygon fill="#000000" points="861.66,495.21,851.8347,494.5288,856.9614,496.9198,854.5705,502.0465,861.66,495.21" style="stroke:#000000;stroke-width:1;"/><text fill="#000000" font-family="Verdana" font-size="13" lengthAdjust="spacing" textLength="62.9624" x="576" y="697.0698">&#171;include&#187;</text></g><!--link ApproveBorrowRequest to CheckCopyBorrowability--><g class="link" data-entity-1="ent0016" data-entity-2="ent0025" data-link-type="dependency" data-source-line="71" id="lnk55"><path d="M226.26,781.21 C337.02,801.22 552.62,828.4 726.5,779 C767.97,767.22 786.79,764.94 809,728 C823,704.71 800.14,627.3 817,606 C828.33,591.69 838.8744,584.2815 856.1044,578.0815" fill="none" id="ApproveBorrowRequest-to-CheckCopyBorrowability" style="stroke:#000000;stroke-width:1;stroke-dasharray:7,7;"/><polygon fill="#000000" points="861.75,576.05,851.9272,575.3335,857.0453,577.7429,854.6359,582.861,861.75,576.05" style="stroke:#000000;stroke-width:1;"/><text fill="#000000" font-family="Verdana" font-size="13" lengthAdjust="spacing" textLength="62.9624" x="576" y="776.0698">&#171;include&#187;</text></g><!--link CreateReservation to CheckReservationEligibility--><g class="link" data-entity-1="ent0011" data-entity-2="ent0026" data-link-type="dependency" data-source-line="72" id="lnk56"><path d="M659.64,288.63 C680.53,294.83 704.8,302.37 726.5,310 C786.91,331.24 849.4819,356.7777 894.6819,375.8477" fill="none" id="CreateReservation-to-CheckReservationEligibility" style="stroke:#000000;stroke-width:1;stroke-dasharray:7,7;"/><polygon fill="#000000" points="900.21,378.18,893.4727,370.9961,895.6032,376.2364,890.3629,378.3669,900.21,378.18" style="stroke:#000000;stroke-width:1;"/><text fill="#000000" font-family="Verdana" font-size="13" lengthAdjust="spacing" textLength="62.9624" x="746" y="316.0698">&#171;include&#187;</text></g><!--link ProcessReservationQueue to CheckCopyAvailability--><g class="link" data-entity-1="ent0019" data-entity-2="ent0027" data-link-type="dependency" data-source-line="73" id="lnk57"><path d="M686.31,952.63 C701.13,946.58 715.43,938.31 726.5,927 C744.83,908.27 728.7,891.52 745,871 C765.72,844.92 791.6,860.4 809,832 C821.23,812.05 804.79,746.96 817,727 C835.5,696.75 864.2785,678.52 893.5285,665.5" fill="none" id="ProcessReservationQueue-to-CheckCopyAvailability" style="stroke:#000000;stroke-width:1;stroke-dasharray:7,7;"/><polygon fill="#000000" points="899.01,663.06,889.1611,663.0656,894.4421,665.0933,892.4144,670.3743,899.01,663.06" style="stroke:#000000;stroke-width:1;"/><text fill="#000000" font-family="Verdana" font-size="13" lengthAdjust="spacing" textLength="62.9624" x="746" y="829.0698">&#171;include&#187;</text></g><!--link ProcessReturn to ManageBookCopies--><g class="link" data-entity-1="ent0018" data-entity-2="ent0021" data-link-type="dependency" data-source-line="74" id="lnk58"><path d="M677.82,893 C731.69,893 800.5,893 858.22,893" fill="none" id="ProcessReturn-to-ManageBookCopies" style="stroke:#000000;stroke-width:1;stroke-dasharray:7,7;"/><polygon fill="#000000" points="864.22,893,855.22,889,859.22,893,855.22,897,864.22,893" style="stroke:#000000;stroke-width:1;"/><text fill="#000000" font-family="Verdana" font-size="13" lengthAdjust="spacing" textLength="62.9624" x="746" y="890.0698">&#171;include&#187;</text></g><!--link SendNotifications to ProcessReservationQueue--><g class="link" data-entity-1="ent0022" data-entity-2="ent0019" data-link-type="dependency" data-source-line="75" id="lnk59"><path d="M221.8,918.96 C299.64,929.1 420.8703,944.8851 507.4003,956.1551" fill="none" id="SendNotifications-to-ProcessReservationQueue" style="stroke:#000000;stroke-width:1;stroke-dasharray:7,7;"/><polygon fill="#000000" points="513.35,956.93,504.942,951.8011,508.3919,956.2842,503.9088,959.7341,513.35,956.93" style="stroke:#000000;stroke-width:1;"/><text fill="#000000" font-family="Verdana" font-size="13" lengthAdjust="spacing" textLength="61.3882" x="345.0969" y="909.0698">&#171;extend&#187;</text><text fill="#000000" font-family="Verdana" font-size="13" lengthAdjust="spacing" textLength="177.582" x="287" y="924.8691">[eligible reservation found]</text></g><!--link ManageFines to ProcessReturn--><g class="link" data-entity-1="ent0020" data-entity-2="ent0018" data-link-type="dependency" data-source-line="76" id="lnk60"><path d="M212.69,846.98 C298.58,857.03 450.3207,874.7828 537.6707,885.0028" fill="none" id="ManageFines-to-ProcessReturn" style="stroke:#000000;stroke-width:1;stroke-dasharray:7,7;"/><polygon fill="#000000" points="543.63,885.7,535.1558,880.6812,538.6639,885.119,534.2261,888.627,543.63,885.7" style="stroke:#000000;stroke-width:1;"/><text fill="#000000" font-family="Verdana" font-size="13" lengthAdjust="spacing" textLength="61.3882" x="344.8135" y="837.0698">&#171;extend&#187;</text><text fill="#000000" font-family="Verdana" font-size="13" lengthAdjust="spacing" textLength="185.0151" x="283" y="852.8691">[overdue, lost, or damaged]</text></g><?plantuml-src bLRBajem4BpxAoQST_S3KbjK0RMfFMJpWAfSaZq8UmmAjaGa6KAbyk_HmzXwcIGtw9uUJSze16_K7bk4OqCeAngi5IWEWkxs2Yegi5IKiq8UA3iIGLeual90ThXHbmR1q8Jj6lG2v9vK_4pP3chII2mAKYeku0NRBOh-otkw5KHGmlhlYwgbry-pfvRG1ZOeJhJ46H095kc1eXWEXPdBSu4NmdHDBJ85cujKsCxWLm7NMc7c3eSL5MNN4EF81G1q4aiYTSXA8548Iou4FyCQVtGebJtTCOxeyL3wXUAv5nhRprHg7nUhDTJ0z4GeNYFprLPbiG7Arhb6gVlHMncAzD18HLY9JQgoyAJA6ljuPhvE3huquUCPwJlAS8otttJKxy8VpKQHkhuvcSNnAFWfEvgUkZ6RDNxNroMdTSmDwIV1IvGcK7N2zQk7738LFRG4FdVOOIWSICk5ATmjzhhcW6lVqiWbvmTOyICDuWtgm52qGLR11wveJKjlb0OEq6H4fZlw9QXWsKbJYxutUomFCjqX0tkRyDJG7TtIXYgt3POVQ8_DfT4MBdqk4kSmN43b4lYJo5RY1VnBBOkJVeMofVYCxPxkN__atDzdtu-HpRuG8nqz1N5MVtKzBbdhyBnuSqFMtRSYjricP7oxCniK1WJh4cjzNo6NQyb4ud2TmY1lUtB4k2OXEsdS_KXDc7PaOlYgYSqwVCfeb2mrwG8YWpuOcdDCaMowuSBVrinTXOU7-VJcmbjuVAIiRBeAv_FR-cHh8t6syVzp-kq4Vpi-sQXHcdyf8ltKl882_ATYIcylZr4bimm5wJoDQAeCeyMVIclcys_iAreVzZ_SQBZc7QjUWuiLfBILHObqmqNLuHqqNAexqF_WAj9gUVNw1m00?></g></svg>