<svg xmlns="http://www.w3.org/2000/svg" xmlns:xlink="http://www.w3.org/1999/xlink" contentStyleType="text/css" data-diagram-type="DESCRIPTION" height="770px" preserveAspectRatio="none" style="width:1076px;height:770px;background:#FFFFFF;" version="1.1" viewBox="0 0 1076 770" width="1076px" zoomAndPan="magnify"><?plantuml 1.2026.3?><defs/><g><!--cluster Library Management System--><g class="cluster" data-qualified-name="Library Management System" data-source-line="10" id="ent0005"><rect fill="#FFFFFF" height="493" rx="2.5" ry="2.5" style="stroke:#000000;stroke-width:1;" width="799.5" x="119.5" y="115.84"/><text fill="#000000" font-family="Verdana" font-size="14" font-weight="700" lengthAdjust="spacing" textLength="224.793" x="406.8535" y="131.9152">Library Management System</text></g><!--cluster Book and Inventory Management--><g class="cluster" data-qualified-name="Library Management System.Book and Inventory Management" data-source-line="11" id="ent0006"><rect fill="#FFFFFF" height="161" rx="2.5" ry="2.5" style="stroke:#000000;stroke-width:1;" width="278" x="143.5" y="159.84"/><text fill="#000000" font-family="Verdana" font-size="14" font-weight="700" lengthAdjust="spacing" textLength="262.2881" x="151.356" y="175.9152">Book and Inventory Management</text></g><!--cluster User and Role Management--><g class="cluster" data-qualified-name="Library Management System.User and Role Management" data-source-line="16" id="ent0009"><rect fill="#FFFFFF" height="240" rx="2.5" ry="2.5" style="stroke:#000000;stroke-width:1;" width="231" x="167" y="344.84"/><text fill="#000000" font-family="Verdana" font-size="14" font-weight="700" lengthAdjust="spacing" textLength="215.5371" x="174.7314" y="360.9152">User and Role Management</text></g><!--cluster Reporting and Notification Management--><g class="cluster" data-qualified-name="Library Management System.Reporting and Notification Management" data-source-line="22" id="ent0013"><rect fill="#FFFFFF" height="161" rx="2.5" ry="2.5" style="stroke:#000000;stroke-width:1;" width="330" x="565" y="353.84"/><text fill="#000000" font-family="Verdana" font-size="14" font-weight="700" lengthAdjust="spacing" textLength="314.1592" x="572.9204" y="369.9152">Reporting and Notification Management</text></g><!--entity ManageBooks--><g class="entity" data-qualified-name="Library Management System.Book and Inventory Management.ManageBooks" data-source-line="12" id="ent0007"><ellipse cx="281.7686" cy="287.5937" fill="#FFFFFF" rx="69.2686" ry="16.2537" style="stroke:#000000;stroke-width:1;"/><text fill="#000000" font-family="Verdana" font-size="14" lengthAdjust="spacing" textLength="101.6299" x="230.9536" y="292.601">Manage Books</text></g><!--entity ManageBookCopies--><g class="entity" data-qualified-name="Library Management System.Book and Inventory Management.ManageBookCopies" data-source-line="13" id="ent0008"><ellipse cx="281.8716" cy="215.7143" fill="#FFFFFF" rx="87.3716" ry="19.8743" style="stroke:#000000;stroke-width:1;"/><text fill="#000000" font-family="Verdana" font-size="14" lengthAdjust="spacing" textLength="145.7285" x="209.0073" y="220.7216">Manage Book Copies</text></g><!--entity ManageUsersRoles--><g class="entity" data-qualified-name="Library Management System.User and Role Management.ManageUsersRoles" data-source-line="17" id="ent0010"><ellipse cx="282.0116" cy="403.0423" fill="#FFFFFF" rx="99.0116" ry="22.2023" style="stroke:#000000;stroke-width:1;"/><text fill="#000000" font-family="Verdana" font-size="14" lengthAdjust="spacing" textLength="172.1494" x="195.9369" y="408.0496">Manage Users and Roles</text></g><!--entity CreateUserAccount--><g class="entity" data-qualified-name="Library Management System.User and Role Management.CreateUserAccount" data-source-line="18" id="ent0011"><ellipse cx="282.1024" cy="480.0605" fill="#FFFFFF" rx="86.6024" ry="19.7205" style="stroke:#000000;stroke-width:1;"/><text fill="#000000" font-family="Verdana" font-size="14" lengthAdjust="spacing" textLength="143.9443" x="210.1302" y="485.0678">Create User Account</text></g><!--entity ViewAuditLogs--><g class="entity" data-qualified-name="Library Management System.User and Role Management.ViewAuditLogs" data-source-line="19" id="ent0012"><ellipse cx="281.7716" cy="551.8943" fill="#FFFFFF" rx="73.2716" ry="17.0543" style="stroke:#000000;stroke-width:1;"/><text fill="#000000" font-family="Verdana" font-size="14" lengthAdjust="spacing" textLength="111.8701" x="225.8365" y="556.9016">View Audit Logs</text></g><!--entity GenerateReports--><g class="entity" data-qualified-name="Library Management System.Reporting and Notification Management.GenerateReports" data-source-line="23" id="ent0014"><ellipse cx="729.5383" cy="407.8477" fill="#FFFFFF" rx="78.0383" ry="18.0077" style="stroke:#000000;stroke-width:1;"/><text fill="#000000" font-family="Verdana" font-size="14" lengthAdjust="spacing" textLength="123.6348" x="667.721" y="412.855">Generate Reports</text></g><!--entity SendNotifications--><g class="entity" data-qualified-name="Library Management System.Reporting and Notification Management.SendNotifications" data-source-line="24" id="ent0015"><ellipse cx="729.5205" cy="479.6441" fill="#FFFFFF" rx="79.5205" ry="18.3041" style="stroke:#000000;stroke-width:1;"/><text fill="#000000" font-family="Verdana" font-size="14" lengthAdjust="spacing" textLength="127.2168" x="665.9121" y="484.6514">Send Notifications</text></g><!--entity Librarian--><g class="entity" data-qualified-name="Librarian" data-source-line="6" id="ent0002"><ellipse cx="41.9121" cy="128.84" fill="#FFFFFF" rx="8" ry="8" style="stroke:#000000;stroke-width:1;"/><path d="M41.9121,136.84 L41.9121,163.84 M28.9121,144.84 L54.9121,144.84 M41.9121,163.84 L28.9121,178.84 M41.9121,163.84 L54.9121,178.84" fill="none" style="stroke:#000000;stroke-width:1;"/><text fill="#000000" font-family="Verdana" font-size="14" lengthAdjust="spacing" textLength="61.8242" x="11" y="194.9152">Librarian</text></g><!--entity Admin--><g class="entity" data-qualified-name="Admin" data-source-line="7" id="ent0003"><ellipse cx="41.8057" cy="449.84" fill="#FFFFFF" rx="8" ry="8" style="stroke:#000000;stroke-width:1;"/><path d="M41.8057,457.84 L41.8057,484.84 M28.8057,465.84 L54.8057,465.84 M41.8057,484.84 L28.8057,499.84 M41.8057,484.84 L54.8057,499.84" fill="none" style="stroke:#000000;stroke-width:1;"/><text fill="#000000" font-family="Verdana" font-size="14" lengthAdjust="spacing" textLength="44.6113" x="19.5" y="515.9152">Admin</text></g><!--entity EmailService--><g class="entity" data-qualified-name="EmailService" data-source-line="8" id="ent0004"><ellipse cx="1013.5645" cy="449.84" fill="#FFFFFF" rx="8" ry="8" style="stroke:#000000;stroke-width:1;"/><path d="M1013.5645,457.84 L1013.5645,484.84 M1000.5645,465.84 L1026.5645,465.84 M1013.5645,484.84 L1000.5645,499.84 M1013.5645,484.84 L1026.5645,499.84" fill="none" style="stroke:#000000;stroke-width:1;"/><text fill="#000000" font-family="Verdana" font-size="14" lengthAdjust="spacing" textLength="95.1289" x="966" y="515.9152">Email Service</text></g><!--link Librarian to ManageBooks--><g class="link" data-entity-1="ent0002" data-entity-2="ent0007" data-link-type="association" data-source-line="28" id="lnk16"><path d="M62.63,198.17 C74.26,217.52 90.79,239.49 111.5,252.84 C141.56,272.2 180.3,281.13 213.15,285.13" fill="none" id="Librarian-ManageBooks" style="stroke:#000000;stroke-width:1;"/></g><!--link Librarian to ManageBookCopies--><g class="link" data-entity-1="ent0002" data-entity-2="ent0008" data-link-type="association" data-source-line="29" id="lnk17"><path d="M73.14,166.06 C110.17,174.92 173.85,190.18 221,201.47" fill="none" id="Librarian-ManageBookCopies" style="stroke:#000000;stroke-width:1;"/></g><!--link Librarian to GenerateReports--><g class="link" data-entity-1="ent0002" data-entity-2="ent0014" data-link-type="association" data-source-line="30" id="lnk18"><path d="M73.11,120.41 C81.77,112.06 91.91,104.37 103,99.84 C276.58,28.79 359.82,11 525,99.84 C644.94,164.35 705.98,333.98 723.26,389.77" fill="none" id="Librarian-GenerateReports" style="stroke:#000000;stroke-width:1;"/></g><!--link Librarian to SendNotifications--><g class="link" data-entity-1="ent0002" data-entity-2="ent0015" data-link-type="association" data-source-line="31" id="lnk19"><path d="M73.25,150.7 C143.18,133.78 318.55,102.51 429.5,179.84 C536.07,254.11 454.85,362.58 557,442.84 C583.35,463.54 618.72,473.28 650.49,477.66" fill="none" id="Librarian-SendNotifications" style="stroke:#000000;stroke-width:1;"/></g><!--link Admin to ManageBooks--><g class="link" data-entity-1="ent0003" data-entity-2="ent0007" data-link-type="association" data-source-line="33" id="lnk20"><path d="M58.9,440.8 C70.48,416.37 88.21,385.68 111.5,364.84 C147.27,332.83 198.57,312.05 235.36,300.23" fill="none" id="Admin-ManageBooks" style="stroke:#000000;stroke-width:1;"/></g><!--link Admin to ManageBookCopies--><g class="link" data-entity-1="ent0003" data-entity-2="ent0008" data-link-type="association" data-source-line="34" id="lnk21"><path d="M43.47,440.51 C46.3,389.84 59.08,302.53 111.5,253.84 C133.93,233 165.22,222.72 194.81,217.89" fill="none" id="Admin-ManageBookCopies" style="stroke:#000000;stroke-width:1;"/></g><!--link Admin to ManageUsersRoles--><g class="link" data-entity-1="ent0003" data-entity-2="ent0010" data-link-type="association" data-source-line="35" id="lnk22"><path d="M64.51,466.31 C77.67,458.53 95.08,449.08 111.5,442.84 C141.03,431.6 174.7,422.87 204.2,416.48" fill="none" id="Admin-ManageUsersRoles" style="stroke:#000000;stroke-width:1;"/></g><!--link Admin to CreateUserAccount--><g class="link" data-entity-1="ent0003" data-entity-2="ent0011" data-link-type="association" data-source-line="36" id="lnk23"><path d="M64.54,479.84 C93.95,479.84 148.37,479.84 195.29,479.84" fill="none" id="Admin-CreateUserAccount" style="stroke:#000000;stroke-width:1;"/></g><!--link Admin to ViewAuditLogs--><g class="link" data-entity-1="ent0003" data-entity-2="ent0012" data-link-type="association" data-source-line="37" id="lnk24"><path d="M64.75,493.71 C77.85,501.52 95.12,510.87 111.5,516.84 C145.8,529.34 185.72,537.85 218.21,543.35" fill="none" id="Admin-ViewAuditLogs" style="stroke:#000000;stroke-width:1;"/></g><!--link Admin to GenerateReports--><g class="link" data-entity-1="ent0003" data-entity-2="ent0014" data-link-type="association" data-source-line="38" id="lnk25"><path d="M57.25,518.92 C68.16,542.62 85.76,570.89 111.5,584.84 C235.78,652.14 299.14,639.43 429.5,584.84 C485.3,561.47 485.88,533.98 525,487.84 C540.64,469.39 536.7,456.98 557,443.84 C585.35,425.49 621.36,416.28 653.05,411.74" fill="none" id="Admin-GenerateReports" style="stroke:#000000;stroke-width:1;"/></g><!--link Admin to SendNotifications--><g class="link" data-entity-1="ent0003" data-entity-2="ent0015" data-link-type="association" data-source-line="39" id="lnk26"><path d="M44.7,519.1 C48.77,558.97 61.86,618.84 103,647.84 C256.31,755.88 348.5,711.28 525,647.84 C609.5,617.46 683.9,535.12 714.13,498.19" fill="none" id="Admin-SendNotifications" style="stroke:#000000;stroke-width:1;"/></g><!--link SendNotifications to EmailService--><g class="link" data-entity-1="ent0015" data-entity-2="ent0004" data-link-type="association" data-source-line="41" id="lnk27"><path d="M809.05,479.84 C859.41,479.84 923.09,479.84 965.66,479.84" fill="none" id="SendNotifications-EmailService" style="stroke:#000000;stroke-width:1;"/></g><!--link CreateUserAccount to SendNotifications--><g class="link" data-entity-1="ent0011" data-entity-2="ent0015" data-link-type="dependency" data-source-line="42" id="lnk28"><path d="M368.63,479.84 C449.89,479.84 565,479.84 643.86,479.84" fill="none" id="CreateUserAccount-to-SendNotifications" style="stroke:#000000;stroke-width:1;stroke-dasharray:7,7;"/><polygon fill="#000000" points="649.86,479.84,640.86,475.84,644.86,479.84,640.86,483.84,649.86,479.84" style="stroke:#000000;stroke-width:1;"/><text fill="#000000" font-family="Verdana" font-size="13" lengthAdjust="spacing" textLength="62.9624" x="462" y="476.9098">&#171;include&#187;</text></g><?plantuml-src XPF1Ri8m44Jl_efjxl015KAYgAegqHw8sllMMSAAn8vi1uIg_djZEqGuWVP6tknunbhpuFPK4pGLiX8LxHmu3ORBlOE23Kd7MWbxODMWmHeQb0SiANVdYi3BgCgAhWRi7WjzObN23YjBGg1qsi26lmmQHjL_hugQBx-pvngvWfpCaILbW1O2wO4GGmvayPmplA7gQjIa7EHdwwZEu5l0fHvaJreV05K1h-hO3Ud44cS1MaiIRJST9V0c6_8Z2Dzt9s6j6wRnV8ITwKTSz_cmP4AVhUwkyNyLFsy7mtL8K09CZMj3wA8HLbBgrX_UkIBtkAUfxPFf1AksO0SRNSOWpmBoP7ALBJNQEBzXN-zTEzwnHFzE_hhN2oaolc2qnw0Bx5dgo6bqVFHudD1GiAiuF36OpP85tX7wJINgk50YJfD5UCRZl1kmpnefLwiSbEcw1YbTou37dGVXHjy9ydF9dssI3_FvSdeKFC9YmKfMRK7BvIy0?></g></svg>